<?xml version="1.0" encoding="UTF-8"?>
<svg width="472px" height="264px" viewBox="0 0 472 264" version="1.1" xmlns="http://www.w3.org/2000/svg" xmlns:xlink="http://www.w3.org/1999/xlink">
    <!-- Generator: Sketch 54.1 (76490) - https://sketchapp.com -->
    <title>middle_right</title>
    <desc>Created with Sketch.</desc>
    <g id="CrewCloud" stroke="none" stroke-width="1" fill="none" fill-rule="evenodd" opacity="0.4">
        <g id="Login" transform="translate(-1215.000000, -178.000000)" fill="#EAEAF0">
            <g id="background_clouds" transform="translate(-338.000000, -484.000000)">
                <path d="M1935.29867,726.066377 C1932.71784,726.066377 1930.16529,726.182557 1927.63961,726.395082 C1904.63977,687.830291 1862.56581,662 1814.46612,662 C1761.44941,662 1715.75521,693.377194 1694.85398,738.603936 C1690.8802,738.085375 1686.82865,737.816177 1682.71487,737.816177 C1644.07023,737.816177 1610.91676,761.37245 1596.77803,794.932985 C1571.86201,799.602868 1553,821.494362 1553,847.812044 C1553,877.530126 1577.04631,901.621963 1606.70964,901.621963 C1611.17555,901.621963 1615.50994,901.067981 1619.65907,900.037943 C1636.25843,915.315659 1658.39846,924.645507 1682.71487,924.645507 C1704.9454,924.645507 1725.35591,916.845839 1741.37688,903.836474 C1762.29225,917.834789 1787.42604,926 1814.46612,926 C1845.59028,926 1874.19017,915.18106 1896.73464,897.098014 C1908.41698,902.680338 1921.49227,905.807289 1935.29867,905.807289 C1984.83939,905.807289 2025,865.572052 2025,815.937541 C2025,766.303031 1984.83939,726.066377 1935.29867,726.066377" id="middle_right"></path>
            </g>
        </g>
    </g>
</svg>