<?xml version="1.0" encoding="UTF-8"?>
<svg width="359px" height="217px" viewBox="0 0 359 217" version="1.1" xmlns="http://www.w3.org/2000/svg" xmlns:xlink="http://www.w3.org/1999/xlink">
    <!-- Generator: Sketch 54.1 (76490) - https://sketchapp.com -->
    <title>stat</title>
    <desc>Created with Sketch.</desc>
    <defs>
        <rect id="path-1" x="0" y="0" width="359" height="217" rx="8"></rect>
        <path d="M54.6670344,89.5503155 C53.629771,91.0215582 52.4020615,92.2444578 51.029597,93.1378278 L6.0244434,103.247143 C3.92109872,104.611568 1.46095258,103.404292 0.454772426,100.544177 C0.442284375,100.494259 0.435148345,100.46098 0.426228309,100.427702 C-0.426527208,97.9854184 0.028394668,95.0384087 1.5394489,93.2820353 L35.0395391,77.722416 C37.21246,74.6256524 38.4791052,70.5490173 38.6057698,66.2616174 C38.6057698,66.2616174 39.3122367,17.8134442 40.113256,15.2805689 L40.11504,15.2214068 L40.1382321,15.1973722 C40.3920383,14.4105783 40.7096532,13.6493018 41.0863773,12.9217376 C43.2574744,7.38943355 48.1709087,4.15687672 54.9751548,2.3830317 C57.4690067,1.72037607 60.2193691,1.26783076 63.1799276,0.966133884 C76.7945777,-0.420235084 90.5748908,-0.314282016 104.17529,1.28219728 C105.65557,1.44741223 107.194632,1.6880514 108.719445,2.00591061 C112.651876,2.80912902 116.576507,4.12443152 119.673475,6.22510123 C123.253921,7.64482296 126.23969,10.5356013 127.672583,14.4505135 C128.597546,16.9782672 126.761851,51.1825501 125.790641,67.8732383 C125.466904,73.3509326 125.249893,76.9341532 125.249893,76.9341532 C125.203645,79.7713913 124.618429,82.4404703 123.599191,84.7356635 C123.584961,84.7660753 123.568952,84.7821756 123.568952,84.7821756 C123.383959,85.2150959 123.168728,85.6354938 122.951717,86.0380023 C122.812973,86.0236909 122.674229,85.9914902 122.535484,85.9753899 C119.235859,89.5747109 115.009492,91.7160564 111.028596,91.7482571 L58.0157964,92.2742016 C56.3062879,92.2853576 55.0699074,91.1859608 54.6670344,89.5503155 Z M57.7107853,82.4494831 C58.1910176,82.1233802 58.7042248,81.8708565 59.2342565,81.7105881 L62.257947,80.9837675 C60.8193732,81.0621879 59.3812796,81.1489718 57.9437706,81.2441191 C57.8763224,81.6509805 57.7985407,82.0529815 57.7107853,82.4494831 Z" id="path-3"></path>
        <path d="M18.2696746,21.2424803 L24.6570255,42.1132173 C24.8041364,42.5947135 25.4575825,42.6071049 25.6252206,42.1326895 L35.3755955,14.1616536 L25.1120429,0 L8.00612208,10.6212402 L0.0210782163,39.7570722 C-0.124322111,40.2899044 0.517149922,40.6669584 0.883216628,40.2651215 L18.2696746,21.2424803 Z" id="path-5"></path>
        <path d="M24.4864693,8.09103103 C25.0290287,2.53777746 30.5993097,0 36.7,0 C43.6495056,0 49.2828571,3.75602702 49.2828571,8.38857143 C49.2828571,13.0211158 43.5376098,16.3365003 36.7,17.201717 C34.400746,17.4926597 32.6175503,17.6107883 31.0266807,16.506168 C28.7313634,14.9124145 25.4747663,11.4491485 24.6046393,10.6189875 C24.3167116,10.9996404 22.8925069,12.2985608 19.953449,15.0766703 C18.0680172,16.7771429 15.3449052,16.7771429 12.5828571,16.7771429 C5.63511578,16.7771429 0,13.0211158 0,8.38857143 C0,3.75602702 5.63511578,0 12.5828571,0 C18.592096,0 23.4876521,3.19744193 24.4864693,8.09103103 Z" id="path-7"></path>
        <path d="M26.627934,20.5410392 C25.6926778,18.6226046 25.1657143,16.4530847 25.1657143,14.1557143 C25.1657143,6.33753376 31.2685246,0 38.7971429,0 C46.3257611,0 52.4285714,6.33753376 52.4285714,14.1557143 C52.4285714,21.9738948 46.3257611,28.3114286 38.7971429,28.3114286 C38.7116976,28.3114286 38.626436,28.3106122 38.5413649,28.3089867 C38.5441748,28.3126019 38.5469839,28.3162184 38.5497921,28.319836 C44.4719741,35.9469027 44.4719741,46.8902401 38.5497921,54.5173069 C29.8587054,65.7132787 13.1331681,65.7132787 4.44030184,54.5173069 C-1.48010061,46.8902401 -1.48010061,35.9469027 4.44030184,28.319836 C9.96605052,21.2029513 18.737558,18.6100194 26.6279383,20.5410402 Z" id="path-9"></path>
        <path d="M13.0969011,1.04857143 L19.9228571,1.04857143 L19.9228571,5.82298355 C25.5482582,9.05264156 29.36,15.2049545 29.36,22.290375 C29.36,27.8823854 26.9755408,32.9000227 23.2048501,36.3570989 C22.3653512,37.2999379 24.0566946,40.1429045 23.047885,40.8942857 L14.3498296,17.5956944 C6.20724512,16.2693574 0,9.3663923 0,1.04857143 L1.05744384,1.04857143 C1.04507233,1.0183589 1.0452543,1.00151666 1.06041978,1.00063753 C2.97045626,0.892265233 5.05685807,0.48045051 7.14502353,0 C7.95983133,0.419039543 8.93160428,0.666489617 10.0726879,0.666489617 C10.8187133,0.666489617 11.5012471,0.558117322 12.127344,0.368465805 L13.0969011,1.04857143 Z" id="path-11"></path>
        <path d="M101.540507,66.06 L3.32020829,66.06 C1.48596735,66.06 0,64.5635825 0,62.7200392 L0,3.34175937 C0,1.49641754 1.48596735,0 3.32020829,0 L101.540507,0 C103.371176,0 104.857143,1.49641754 104.857143,3.34175937 L104.857143,62.7200392 C104.857143,64.5635825 103.371176,66.06 101.540507,66.06" id="path-13"></path>
        <polygon id="path-15" points="0 200.277143 295.697143 200.277143 295.697143 0 0 0"></polygon>
        <path d="M251.657143,19.9228571 L19.1461167,19.9228571 L19.1461167,1.89763068 L0,1.89763068 L0,1.04857143 L251.657143,1.04857143 L251.657143,0 L315.62,0 L315.62,200.277143 L251.657143,200.277143 L251.657143,19.9228571 Z" id="path-17"></path>
        <path d="M251.657143,19.9228571 L19.1461167,19.9228571 L19.1461167,1.89763068 L0,1.89763068 L0,1.04857143 L251.657143,1.04857143 L251.657143,0 L315.62,0 L315.62,200.277143 L251.657143,200.277143 L251.657143,19.9228571 Z" id="path-19"></path>
        <polygon id="path-21" points="0 7.34 334.494286 7.34 334.494286 0 0 0"></polygon>
    </defs>
    <g id="Symbols" stroke="none" stroke-width="1" fill="none" fill-rule="evenodd">
        <g id="footer" transform="translate(-1170.000000, -65.000000)">
            <g id="stat">
                <g transform="translate(1170.000000, 65.000000)">
                    <g id="background">
                        <mask id="mask-2" fill="white">
                            <use xlink:href="#path-1"></use>
                        </mask>
                        <g id="Rectangle"></g>
                        <g id="colour_highlight" mask="url(#mask-2)" fill="#18C8CB">
                            <g transform="translate(-17.000000, -11.000000)">
                                <rect x="0" y="0" width="414" height="296"></rect>
                            </g>
                        </g>
                        <g id="image_woman_desk" mask="url(#mask-2)">
                            <g transform="translate(33.000000, 19.000000)" id="woman_desk">
                                <g transform="translate(15.728571, 9.437143)">
                                    <path d="M209.212034,271.958781 L209.212034,320.862857 L186.989501,320.862857 L184.6784,303.074183 C184.6784,303.074183 178.868599,256.769176 173.108653,205.015258 C173.048115,204.485055 173.046335,203.95306 173.014286,203.422857 L210.762857,203.422857 L209.212034,271.958781 Z" id="Fill-1" fill="#FFACEA"></path>
                                    <path d="M208.665714,331.348571 L175.507194,331.348571 C174.51996,331.348571 173.640423,330.933019 173.001413,330.271489 C172.362403,329.608096 171.965714,328.696862 171.965714,327.670093 C171.965714,325.948252 173.112701,324.45748 174.742536,324.077333 L186.327286,321.408852 L186.262667,320.862857 L208.665714,320.862857 L208.665714,331.348571 Z" id="Fill-3" fill="#2062A9"></path>
                                    <path d="M99.1592057,328.202857 C99.1592057,327.417703 99.4947486,326.683533 100.069366,326.105714 C99.4947486,326.683533 99.1592057,327.417703 99.1592057,328.202857" id="Fill-5" fill="#2062A9"></path>
                                    <path d="M101.711429,324.008571 L113.245714,321.911429 L101.711429,324.008571 Z" id="Fill-7" fill="#2062A9"></path>
                                    <path d="M99.1015343,325.515369 C99.3888429,325.156757 99.7348714,324.84638 100.127037,324.598917 C99.7348714,324.848477 99.3888429,325.156757 99.1015343,325.515369" id="Fill-9" fill="#2062A9"></path>
                                    <path d="M98.5657358,201.415877 C98.5657358,202.565423 98.6300648,203.729316 98.756936,204.878862 C104.539401,256.690929 110.377261,303.058344 110.377261,303.058344 L112.69132,320.862857 L134.993839,320.862857 L134.993839,271.905825 L136.550244,203.284562 L172.535191,203.284562 L233.949763,203.284562 C237.512877,203.284562 241.158189,202.629984 244.665908,201.415877 C255.90562,197.531452 265.749749,187.958477 267.216808,176.079237 C268.2014,168.132843 264.741928,161.108238 260.467621,154.70055 C259.363305,153.039895 247.810883,138.863356 248.293351,138.411429 C247.496386,139.146708 190.313235,139.204095 190.313235,139.204095 C186.62861,156.764711 171.22002,169.36309 153.327613,169.436618 L129.624151,169.53346 C120.728875,169.727143 112.280329,173.667163 106.419239,180.376136 C101.330097,186.209948 98.5568012,193.727728 98.5657358,201.415877" id="Fill-11" fill="#FFACEA"></path>
                                    <path d="M101.317166,324.786611 C100.841114,324.893566 100.400714,325.078114 100.008549,325.327674 C100.400714,325.078114 100.841114,324.893566 101.317166,324.786611" id="Fill-13" fill="#2062A9"></path>
                                    <path d="M99.344656,325.370578 C99.5905431,325.051925 99.8866846,324.777996 100.222312,324.556244 C100.559733,324.334491 100.936641,324.170506 101.342265,324.077333 L112.925882,321.408852 L112.863064,320.862857 L135.265714,320.862857 L135.265714,331.348571 L102.108643,331.348571 C101.11971,331.348571 100.242054,330.933019 99.6049015,330.271489 C99.2854277,329.939792 99.0251822,329.546601 98.8457025,329.108687 C98.6662229,328.670773 98.5657143,328.184409 98.5657143,327.670093 C98.5657143,326.809172 98.8546765,326.006019 99.344656,325.370578" id="Fill-15" fill="#2062A9"></path>
                                    <g id="top" transform="translate(133.168571, 81.788571)">
                                        <mask id="mask-4" fill="white">
                                            <use xlink:href="#path-3"></use>
                                        </mask>
                                        <use id="Mask" fill="#FFFFFF" xlink:href="#path-3"></use>
                                    </g>
                                    <g id="neckachief" transform="translate(210.626446, 111.661019) rotate(-12.000000) translate(-210.626446, -111.661019) translate(192.800732, 90.270161)">
                                        <mask id="mask-6" fill="white">
                                            <use xlink:href="#path-5"></use>
                                        </mask>
                                        <use id="Mask" fill="#18C8CB" xlink:href="#path-5"></use>
                                        <g id="colour_base" mask="url(#mask-6)" fill="#383748">
                                            <g transform="translate(-11.791865, -2.022930)">
                                                <rect x="0" y="0" width="56" height="54"></rect>
                                            </g>
                                        </g>
                                    </g>
                                    <g id="colar" transform="translate(188.742857, 78.642857)">
                                        <mask id="mask-8" fill="white">
                                            <use xlink:href="#path-7"></use>
                                        </mask>
                                        <use id="Mask" fill="#FFFFFF" xlink:href="#path-7"></use>
                                        <g id="colour_background" mask="url(#mask-8)" fill="#EAEAF0">
                                            <g transform="translate(-19.922857, -16.777143)">
                                                <rect x="0" y="0" width="90" height="47"></rect>
                                            </g>
                                        </g>
                                    </g>
                                    <g id="backhair" transform="translate(187.694286, 0.000000)">
                                        <mask id="mask-10" fill="white">
                                            <use xlink:href="#path-9"></use>
                                        </mask>
                                        <use id="Mask" fill="#2062A9" xlink:href="#path-9"></use>
                                        <g id="colour_base" mask="url(#mask-10)" fill="#383748">
                                            <g transform="translate(-2.097143, -1.048571)">
                                                <rect x="0" y="0" width="60" height="64"></rect>
                                            </g>
                                        </g>
                                    </g>
                                    <path d="M188.770739,47.1244514 C189.234822,55.3178515 195.815381,62.1209113 203.989413,62.8459909 C208.264057,63.2248451 212.24321,62.0067113 215.393901,59.7082088 C219.576091,56.6628742 222.297143,51.717831 222.297143,46.1437812 C222.297143,36.8700125 214.79023,29.36 205.526689,29.36 C205.176814,29.36 204.814249,29.3726889 204.462561,29.3980667 C195.363987,29.9600034 188.239581,37.7600477 188.770739,47.1244514" id="Fill-29" fill="#FBC4A4"></path>
                                    <g id="fronthair" transform="translate(197.131429, 23.068571)">
                                        <mask id="mask-12" fill="white">
                                            <use xlink:href="#path-11"></use>
                                        </mask>
                                        <use id="Mask" fill="#2062A9" xlink:href="#path-11"></use>
                                        <g id="colour_base" mask="url(#mask-12)" fill="#383748">
                                            <g transform="translate(-17.825714, -26.214286)">
                                                <rect x="0" y="0" width="65" height="71"></rect>
                                            </g>
                                        </g>
                                    </g>
                                    <path d="M217.389328,87.0313811 L207.829688,86.9940848 C205.606141,86.9869807 203.736788,85.3370607 203.466671,83.1454555 L200.277143,57.2688851 L218.131703,48.2342857 L219.391056,53.2479822 L223.285393,80.3091561 C223.795217,83.8665185 221.008181,87.0455893 217.389328,87.0313811" id="Fill-33" fill="#FBC4A4"></path>
                                    <path d="M208.665714,44.5652076 C208.665714,48.3284628 211.716839,51.38 215.481429,51.38 C219.246018,51.38 222.297143,48.3284628 222.297143,44.5652076 C222.297143,40.8001086 219.246018,37.7485714 215.481429,37.7485714 C211.716839,37.7485714 208.665714,40.8001086 208.665714,44.5652076" id="Fill-39" fill="#FBC4A4"></path>
                                    <g id="laptop" transform="translate(46.137143, 83.885714)">
                                        <mask id="mask-14" fill="white">
                                            <use xlink:href="#path-13"></use>
                                        </mask>
                                        <use id="Mask" fill="#2062A9" xlink:href="#path-13"></use>
                                        <g id="colour_base" mask="url(#mask-14)" fill="#383748">
                                            <g transform="translate(-14.680000, -5.242857)">
                                                <rect x="0" y="0" width="124" height="82"></rect>
                                            </g>
                                        </g>
                                    </g>
                                    <path d="M102.76,116.391429 C102.76,119.28782 100.413534,121.634286 97.5171429,121.634286 C94.6207516,121.634286 92.2742857,119.28782 92.2742857,116.391429 C92.2742857,113.495037 94.6207516,111.148571 97.5171429,111.148571 C100.413534,111.148571 102.76,113.495037 102.76,116.391429" id="laptopdot" fill="#FFFFFF"></path>
                                    <g id="desk" transform="translate(18.874286, 155.188571)">
                                        <mask id="mask-16" fill="white">
                                            <use xlink:href="#path-15"></use>
                                        </mask>
                                        <use id="Mask" fill="#6CCEFF" xlink:href="#path-15"></use>
                                        <g id="colour_base" mask="url(#mask-16)" fill="#383748">
                                            <g transform="translate(-1.048571, 0.000000)">
                                                <rect x="0" y="0" width="300" height="209"></rect>
                                            </g>
                                        </g>
                                    </g>
                                    <g id="shadow" transform="translate(0.000000, 155.188571)">
                                        <mask id="mask-18" fill="white">
                                            <use xlink:href="#path-17"></use>
                                        </mask>
                                        <use id="Mask" fill="#3093D0" xlink:href="#path-17"></use>
                                        <g id="colour_base" mask="url(#mask-18)" fill="#383748">
                                            <g transform="translate(17.825714, 0.000000)">
                                                <rect x="0" y="0" width="300" height="209"></rect>
                                            </g>
                                        </g>
                                        <mask id="mask-20" fill="white">
                                            <use xlink:href="#path-19"></use>
                                        </mask>
                                        <use id="Mask" fill-opacity="0.1" fill="#000000" xlink:href="#path-19"></use>
                                    </g>
                                    <g id="rim" transform="translate(0.000000, 149.945714)">
                                        <mask id="mask-22" fill="white">
                                            <use xlink:href="#path-21"></use>
                                        </mask>
                                        <use id="Mask" fill="#FFFFFF" xlink:href="#path-21"></use>
                                    </g>
                                </g>
                            </g>
                        </g>
                    </g>
                    <g id="text" transform="translate(26.000000, 21.000000)" fill="#FFFFFF" fill-rule="nonzero">
                        <path d="M1.8,15 L1.8,0.8 L6.64,0.8 C11.02,0.8 13.88,3.4 13.88,7.88 C13.88,12.36 11.02,15 6.64,15 L1.8,15 Z M4.38,12.78 L6.5,12.78 C9.38,12.78 11.22,11.08 11.22,7.88 C11.22,4.72 9.34,3.02 6.5,3.02 L4.38,3.02 L4.38,12.78 Z M16.18,3.06 L16.18,0.8 L18.7,0.8 L18.7,3.06 L16.18,3.06 Z M16.18,15 L16.18,4.8 L18.72,4.8 L18.72,15 L16.18,15 Z M20.82,9.9 C20.82,6.66 22.74,4.56 25.44,4.56 C27.68,4.56 28.38,5.86 28.38,5.86 L28.42,5.86 C28.42,5.86 28.4,5.6 28.4,5.28 L28.4,0.8 L30.94,0.8 L30.94,15 L28.54,15 L28.54,14.16 C28.54,13.78 28.58,13.5 28.58,13.5 L28.54,13.5 C28.54,13.5 27.68,15.24 25.34,15.24 C22.58,15.24 20.82,13.06 20.82,9.9 Z M23.38,9.9 C23.38,11.84 24.42,13.1 25.92,13.1 C27.24,13.1 28.48,12.14 28.48,9.88 C28.48,8.3 27.64,6.74 25.94,6.74 C24.54,6.74 23.38,7.88 23.38,9.9 Z M37.22,18.54 L38.06,16.64 C38.06,16.64 38.62,17.06 39.2,17.06 C39.9,17.06 40.58,16.64 40.96,15.74 L41.34,14.84 L37.04,4.8 L39.9,4.8 L42.04,10.68 C42.24,11.22 42.42,12.06 42.42,12.06 L42.46,12.06 C42.46,12.06 42.62,11.26 42.8,10.72 L44.8,4.8 L47.58,4.8 L43.02,16.54 C42.3,18.4 40.88,19.2 39.34,19.2 C38.12,19.2 37.22,18.54 37.22,18.54 Z M48.26,9.9 C48.26,6.78 50.76,4.56 53.86,4.56 C56.98,4.56 59.48,6.78 59.48,9.9 C59.48,13.04 56.98,15.24 53.88,15.24 C50.76,15.24 48.26,13.04 48.26,9.9 Z M50.84,9.9 C50.84,11.8 52.22,13.08 53.88,13.08 C55.52,13.08 56.9,11.8 56.9,9.9 C56.9,8.02 55.52,6.72 53.88,6.72 C52.22,6.72 50.84,8.02 50.84,9.9 Z M61.38,11.36 L61.38,4.8 L63.92,4.8 L63.92,10.84 C63.92,12.08 64.24,12.92 65.5,12.92 C67.34,12.92 68.36,11.3 68.36,9.48 L68.36,4.8 L70.9,4.8 L70.9,15 L68.46,15 L68.46,13.84 C68.46,13.44 68.5,13.12 68.5,13.12 L68.46,13.12 C67.96,14.18 66.66,15.24 64.92,15.24 C62.74,15.24 61.38,14.14 61.38,11.36 Z M78.56,15 L78.56,0.8 L81.1,0.8 L81.1,8.4 L82.36,8.4 L84.82,4.8 L87.64,4.8 L84.42,9.36 L84.42,9.4 L88.04,15 L85.12,15 L82.42,10.54 L81.1,10.54 L81.1,15 L78.56,15 Z M89.6,15 L89.6,4.8 L92.04,4.8 L92.04,5.98 C92.04,6.36 92,6.68 92,6.68 L92.04,6.68 C92.48,5.82 93.6,4.56 95.66,4.56 C97.92,4.56 99.2,5.74 99.2,8.44 L99.2,15 L96.68,15 L96.68,8.96 C96.68,7.72 96.36,6.88 95.06,6.88 C93.7,6.88 92.7,7.74 92.32,8.96 C92.18,9.38 92.14,9.84 92.14,10.32 L92.14,15 L89.6,15 Z M101.1,9.9 C101.1,6.78 103.6,4.56 106.7,4.56 C109.82,4.56 112.32,6.78 112.32,9.9 C112.32,13.04 109.82,15.24 106.72,15.24 C103.6,15.24 101.1,13.04 101.1,9.9 Z M103.68,9.9 C103.68,11.8 105.06,13.08 106.72,13.08 C108.36,13.08 109.74,11.8 109.74,9.9 C109.74,8.02 108.36,6.72 106.72,6.72 C105.06,6.72 103.68,8.02 103.68,9.9 Z M116.36,15 L113.24,4.8 L115.92,4.8 L117.7,11.5 C117.84,12.04 117.9,12.58 117.9,12.58 L117.94,12.58 C117.94,12.58 118.04,12.04 118.18,11.5 L120.06,4.82 L122.32,4.82 L124.2,11.5 C124.34,12.04 124.42,12.58 124.42,12.58 L124.46,12.58 C124.46,12.58 124.54,12.04 124.68,11.5 L126.46,4.8 L129.1,4.8 L126,15 L123.18,15 L121.46,9.18 C121.3,8.64 121.2,8.08 121.2,8.08 L121.16,8.08 C121.16,8.08 121.08,8.64 120.92,9.18 L119.2,15 L116.36,15 Z M141.82,15 L141.82,12.46 L144.28,12.46 L144.28,15 L141.82,15 Z M136.12,15 L136.12,12.46 L138.58,12.46 L138.58,15 L136.12,15 Z M130.44,15 L130.44,12.46 L132.88,12.46 L132.88,15 L130.44,15 Z" id="Didyouknow…"></path>
                        <path d="M1.836,51 L1.836,47.226 L7.072,47.226 L7.072,33.83 C7.072,33.014 7.106,32.198 7.106,32.198 L7.038,32.198 C7.038,32.198 6.766,32.776 5.984,33.558 L4.046,35.394 L1.462,32.674 L7.514,26.86 L11.356,26.86 L11.356,47.226 L16.592,47.226 L16.592,51 L1.836,51 Z M19.244,51 L19.244,47.226 L24.48,47.226 L24.48,33.83 C24.48,33.014 24.514,32.198 24.514,32.198 L24.446,32.198 C24.446,32.198 24.174,32.776 23.392,33.558 L21.454,35.394 L18.87,32.674 L24.922,26.86 L28.764,26.86 L28.764,47.226 L34,47.226 L34,51 L19.244,51 Z M42.432,51.408 C39.372,51.408 37.502,50.388 37.502,50.388 L38.794,46.614 C38.794,46.614 40.324,47.396 42.16,47.396 C45.968,47.396 48.008,44.234 48.62,40.936 L48.552,40.936 C47.702,41.922 45.73,42.636 43.996,42.636 C39.236,42.636 36.278,38.896 36.278,34.544 C36.278,30.09 39.44,26.452 44.234,26.452 C49.266,26.452 53.55,30.634 53.55,37.91 C53.55,44.234 49.912,51.408 42.432,51.408 Z M45.05,39.032 C47.226,39.032 48.994,37.876 48.994,36.414 C48.994,33.388 46.75,30.498 44.234,30.498 C41.99,30.498 40.596,32.266 40.596,34.544 C40.596,36.992 42.126,39.032 45.05,39.032 Z M55.93,54.57 L58.208,46.614 L62.458,46.614 L59.194,54.57 L55.93,54.57 Z M66.096,43.996 C66.096,40.562 68.986,38.284 69.734,37.774 C68.272,36.652 67.252,35.19 67.252,33.048 C67.252,29.716 69.7,26.452 75.004,26.452 C79.492,26.452 82.824,28.968 82.824,33.15 C82.824,36.142 80.376,38.828 80.138,39.1 C81.906,40.222 83.232,41.752 83.232,44.234 C83.232,47.94 80.138,51.408 74.732,51.408 C69.496,51.408 66.096,48.144 66.096,43.996 Z M78.778,44.03 C78.778,41.922 75.752,40.97 72.828,39.576 C72.046,40.222 70.584,41.65 70.584,43.656 C70.584,45.934 72.522,47.532 74.732,47.532 C76.976,47.532 78.778,46.172 78.778,44.03 Z M71.57,33.15 C71.57,35.36 74.154,36.312 76.908,37.502 C77.248,37.128 78.54,35.53 78.54,33.422 C78.54,31.552 77.112,30.362 74.936,30.362 C72.726,30.362 71.57,31.586 71.57,33.15 Z M92.752,51.408 C89.692,51.408 87.822,50.388 87.822,50.388 L89.114,46.614 C89.114,46.614 90.644,47.396 92.48,47.396 C96.288,47.396 98.328,44.234 98.94,40.936 L98.872,40.936 C98.022,41.922 96.05,42.636 94.316,42.636 C89.556,42.636 86.598,38.896 86.598,34.544 C86.598,30.09 89.76,26.452 94.554,26.452 C99.586,26.452 103.87,30.634 103.87,37.91 C103.87,44.234 100.232,51.408 92.752,51.408 Z M95.37,39.032 C97.546,39.032 99.314,37.876 99.314,36.414 C99.314,33.388 97.07,30.498 94.554,30.498 C92.31,30.498 90.916,32.266 90.916,34.544 C90.916,36.992 92.446,39.032 95.37,39.032 Z M116.348,51.408 C109.752,51.408 107.61,45.832 107.61,38.896 C107.61,31.96 109.752,26.452 116.348,26.452 C122.944,26.452 125.12,31.96 125.12,38.896 C125.12,45.832 122.944,51.408 116.348,51.408 Z M116.348,47.396 C119.646,47.396 120.598,43.656 120.598,38.896 C120.598,34.204 119.646,30.498 116.348,30.498 C113.05,30.498 112.098,34.204 112.098,38.896 C112.098,43.656 113.05,47.396 116.348,47.396 Z" id="119,890"></path>
                        <path d="M0.588,68.866 L1.372,67.816 C1.372,67.816 2.422,68.88 3.892,68.88 C4.816,68.88 5.6,68.362 5.6,67.424 C5.6,65.282 0.812,65.744 0.812,62.706 C0.812,61.166 2.142,59.948 4.004,59.948 C5.838,59.948 6.804,60.942 6.804,60.942 L6.174,62.09 C6.174,62.09 5.264,61.236 4.004,61.236 C2.954,61.236 2.212,61.894 2.212,62.678 C2.212,64.722 7,64.176 7,67.382 C7,68.908 5.824,70.168 3.864,70.168 C1.764,70.168 0.588,68.866 0.588,68.866 Z M8.19,66.444 C8.19,64.302 9.898,62.748 12.012,62.748 C14.126,62.748 15.834,64.302 15.834,66.444 C15.834,68.6 14.126,70.168 12.012,70.168 C9.898,70.168 8.19,68.6 8.19,66.444 Z M9.576,66.444 C9.576,67.928 10.682,68.992 12.012,68.992 C13.356,68.992 14.448,67.928 14.448,66.444 C14.448,64.974 13.356,63.924 12.012,63.924 C10.682,63.924 9.576,64.974 9.576,66.444 Z M17.78,70 L17.78,64.106 L16.898,64.106 L16.898,63.014 L17.78,63.014 L17.78,62.678 C17.78,60.34 19.544,60.046 20.44,60.046 C20.748,60.046 20.958,60.088 20.958,60.088 L20.958,61.25 C20.958,61.25 20.818,61.222 20.608,61.222 C20.09,61.222 19.124,61.39 19.124,62.706 L19.124,63.014 L20.804,63.014 L20.804,64.106 L19.124,64.106 L19.124,70 L17.78,70 Z M22.4,67.41 L22.4,64.106 L21.476,64.106 L21.476,63.014 L22.442,63.014 L22.442,60.97 L23.758,60.97 L23.758,63.014 L25.466,63.014 L25.466,64.106 L23.758,64.106 L23.758,67.256 C23.758,68.67 24.752,68.852 25.27,68.852 C25.466,68.852 25.592,68.824 25.592,68.824 L25.592,70.028 C25.592,70.028 25.396,70.056 25.116,70.056 C24.206,70.056 22.4,69.776 22.4,67.41 Z M30.254,66.458 C30.254,64.204 31.584,62.748 33.46,62.748 C35.098,62.748 35.644,63.868 35.644,63.868 L35.672,63.868 C35.672,63.868 35.644,63.658 35.644,63.392 L35.644,60.116 L37.002,60.116 L37.002,70 L35.714,70 L35.714,69.328 C35.714,69.048 35.728,68.852 35.728,68.852 L35.7,68.852 C35.7,68.852 35.126,70.168 33.376,70.168 C31.458,70.168 30.254,68.656 30.254,66.458 Z M31.64,66.458 C31.64,67.998 32.466,68.992 33.642,68.992 C34.692,68.992 35.686,68.25 35.686,66.444 C35.686,65.184 35.028,63.924 33.684,63.924 C32.564,63.924 31.64,64.848 31.64,66.458 Z M39.13,70 L39.13,62.916 L40.446,62.916 L40.446,64.148 C40.446,64.442 40.418,64.68 40.418,64.68 L40.446,64.68 C40.768,63.644 41.594,62.832 42.686,62.832 C42.868,62.832 43.036,62.86 43.036,62.86 L43.036,64.204 C43.036,64.204 42.854,64.162 42.644,64.162 C41.776,64.162 40.978,64.778 40.656,65.828 C40.53,66.234 40.488,66.668 40.488,67.102 L40.488,70 L39.13,70 Z M44.366,61.502 L44.366,60.116 L45.738,60.116 L45.738,61.502 L44.366,61.502 Z M44.38,70 L44.38,62.916 L45.738,62.916 L45.738,70 L44.38,70 Z M47.866,70 L47.866,62.916 L49.182,62.916 L49.182,63.854 C49.182,64.134 49.154,64.372 49.154,64.372 L49.182,64.372 C49.462,63.756 50.302,62.748 51.842,62.748 C53.508,62.748 54.278,63.658 54.278,65.464 L54.278,70 L52.92,70 L52.92,65.772 C52.92,64.778 52.71,63.994 51.576,63.994 C50.498,63.994 49.63,64.708 49.336,65.73 C49.252,66.01 49.224,66.332 49.224,66.682 L49.224,70 L47.866,70 Z M56.308,70 L56.308,60.116 L57.666,60.116 L57.666,65.52 L58.66,65.52 L60.592,62.916 L62.132,62.916 L59.78,66.038 L59.78,66.066 L62.398,70 L60.816,70 L58.688,66.668 L57.666,66.668 L57.666,70 L56.308,70 Z M63.098,69.132 L63.756,68.166 C63.756,68.166 64.554,68.992 65.786,68.992 C66.374,68.992 66.962,68.684 66.962,68.11 C66.962,66.808 63.322,67.074 63.322,64.764 C63.322,63.476 64.47,62.748 65.884,62.748 C67.438,62.748 68.166,63.532 68.166,63.532 L67.62,64.554 C67.62,64.554 66.99,63.924 65.87,63.924 C65.282,63.924 64.708,64.176 64.708,64.792 C64.708,66.066 68.348,65.786 68.348,68.11 C68.348,69.286 67.34,70.168 65.786,70.168 C64.05,70.168 63.098,69.132 63.098,69.132 Z M72.968,69.132 L73.626,68.166 C73.626,68.166 74.424,68.992 75.656,68.992 C76.244,68.992 76.832,68.684 76.832,68.11 C76.832,66.808 73.192,67.074 73.192,64.764 C73.192,63.476 74.34,62.748 75.754,62.748 C77.308,62.748 78.036,63.532 78.036,63.532 L77.49,64.554 C77.49,64.554 76.86,63.924 75.74,63.924 C75.152,63.924 74.578,64.176 74.578,64.792 C74.578,66.066 78.218,65.786 78.218,68.11 C78.218,69.286 77.21,70.168 75.656,70.168 C73.92,70.168 72.968,69.132 72.968,69.132 Z M79.296,66.444 C79.296,64.302 81.004,62.748 83.118,62.748 C85.232,62.748 86.94,64.302 86.94,66.444 C86.94,68.6 85.232,70.168 83.118,70.168 C81.004,70.168 79.296,68.6 79.296,66.444 Z M80.682,66.444 C80.682,67.928 81.788,68.992 83.118,68.992 C84.462,68.992 85.554,67.928 85.554,66.444 C85.554,64.974 84.462,63.924 83.118,63.924 C81.788,63.924 80.682,64.974 80.682,66.444 Z M88.466,68.068 L88.466,60.116 L89.824,60.116 L89.824,67.83 C89.824,68.684 90.16,68.838 90.58,68.838 C90.706,68.838 90.818,68.824 90.818,68.824 L90.818,70.028 C90.818,70.028 90.608,70.056 90.37,70.056 C89.6,70.056 88.466,69.846 88.466,68.068 Z M91.798,66.458 C91.798,64.204 93.128,62.748 95.004,62.748 C96.642,62.748 97.188,63.868 97.188,63.868 L97.216,63.868 C97.216,63.868 97.188,63.658 97.188,63.392 L97.188,60.116 L98.546,60.116 L98.546,70 L97.258,70 L97.258,69.328 C97.258,69.048 97.272,68.852 97.272,68.852 L97.244,68.852 C97.244,68.852 96.67,70.168 94.92,70.168 C93.002,70.168 91.798,68.656 91.798,66.458 Z M93.184,66.458 C93.184,67.998 94.01,68.992 95.186,68.992 C96.236,68.992 97.23,68.25 97.23,66.444 C97.23,65.184 96.572,63.924 95.228,63.924 C94.108,63.924 93.184,64.848 93.184,66.458 Z M104.566,67.41 L104.566,64.106 L103.642,64.106 L103.642,63.014 L104.608,63.014 L104.608,60.97 L105.924,60.97 L105.924,63.014 L107.632,63.014 L107.632,64.106 L105.924,64.106 L105.924,67.256 C105.924,68.67 106.918,68.852 107.436,68.852 C107.632,68.852 107.758,68.824 107.758,68.824 L107.758,70.028 C107.758,70.028 107.562,70.056 107.282,70.056 C106.372,70.056 104.566,69.776 104.566,67.41 Z M109.284,70 L109.284,60.116 L110.642,60.116 L110.642,63.742 C110.642,64.078 110.614,64.33 110.614,64.33 L110.642,64.33 C110.95,63.644 111.846,62.748 113.26,62.748 C114.926,62.748 115.696,63.658 115.696,65.464 L115.696,70 L114.338,70 L114.338,65.772 C114.338,64.778 114.128,63.994 112.994,63.994 C111.93,63.994 111.048,64.722 110.754,65.744 C110.67,66.024 110.642,66.346 110.642,66.682 L110.642,70 L109.284,70 Z M117.712,61.502 L117.712,60.116 L119.084,60.116 L119.084,61.502 L117.712,61.502 Z M117.726,70 L117.726,62.916 L119.084,62.916 L119.084,70 L117.726,70 Z M120.638,69.132 L121.296,68.166 C121.296,68.166 122.094,68.992 123.326,68.992 C123.914,68.992 124.502,68.684 124.502,68.11 C124.502,66.808 120.862,67.074 120.862,64.764 C120.862,63.476 122.01,62.748 123.424,62.748 C124.978,62.748 125.706,63.532 125.706,63.532 L125.16,64.554 C125.16,64.554 124.53,63.924 123.41,63.924 C122.822,63.924 122.248,64.176 122.248,64.792 C122.248,66.066 125.888,65.786 125.888,68.11 C125.888,69.286 124.88,70.168 123.326,70.168 C121.59,70.168 120.638,69.132 120.638,69.132 Z M130.088,72.506 L130.564,71.47 C130.564,71.47 130.956,71.764 131.39,71.764 C131.936,71.764 132.398,71.372 132.664,70.728 L133.014,69.916 L130.046,62.916 L131.572,62.916 L133.35,67.55 C133.49,67.914 133.616,68.404 133.616,68.404 L133.644,68.404 C133.644,68.404 133.756,67.928 133.882,67.564 L135.604,62.916 L137.074,62.916 L133.756,71.274 C133.322,72.366 132.454,72.94 131.46,72.94 C130.662,72.94 130.088,72.506 130.088,72.506 Z M137.732,66.458 C137.732,64.204 139.258,62.748 141.274,62.748 C143.276,62.748 144.34,64.232 144.34,66.066 C144.34,66.248 144.298,66.654 144.298,66.654 L139.132,66.654 C139.202,68.208 140.308,68.992 141.568,68.992 C142.786,68.992 143.668,68.166 143.668,68.166 L144.228,69.16 C144.228,69.16 143.178,70.168 141.484,70.168 C139.258,70.168 137.732,68.558 137.732,66.458 Z M139.174,65.632 L142.954,65.632 C142.912,64.414 142.156,63.826 141.246,63.826 C140.21,63.826 139.37,64.47 139.174,65.632 Z M145.418,68.012 C145.418,65.674 148.498,65.576 149.688,65.576 L149.996,65.576 L149.996,65.45 C149.996,64.288 149.338,63.896 148.442,63.896 C147.35,63.896 146.468,64.582 146.468,64.582 L145.908,63.588 C145.908,63.588 146.93,62.748 148.554,62.748 C150.346,62.748 151.354,63.728 151.354,65.52 L151.354,70 L150.094,70 L150.094,69.328 C150.094,69.006 150.122,68.768 150.122,68.768 L150.094,68.768 C150.094,68.768 149.52,70.168 147.826,70.168 C146.608,70.168 145.418,69.426 145.418,68.012 Z M146.79,67.942 C146.79,68.516 147.238,69.076 148.12,69.076 C149.268,69.076 150.01,67.872 150.01,66.822 L150.01,66.598 L149.66,66.598 C148.638,66.598 146.79,66.668 146.79,67.942 Z M153.384,70 L153.384,62.916 L154.7,62.916 L154.7,64.148 C154.7,64.442 154.672,64.68 154.672,64.68 L154.7,64.68 C155.022,63.644 155.848,62.832 156.94,62.832 C157.122,62.832 157.29,62.86 157.29,62.86 L157.29,64.204 C157.29,64.204 157.108,64.162 156.898,64.162 C156.03,64.162 155.232,64.778 154.91,65.828 C154.784,66.234 154.742,66.668 154.742,67.102 L154.742,70 L153.384,70 Z" id="Softdrinkssoldthisyear"></path>
                    </g>
                </g>
            </g>
        </g>
    </g>
</svg>