<?xml version="1.0" encoding="UTF-8"?>
<svg width="359px" height="217px" viewBox="0 0 359 217" version="1.1" xmlns="http://www.w3.org/2000/svg" xmlns:xlink="http://www.w3.org/1999/xlink">
    <!-- Generator: Sketch 54.1 (76490) - https://sketchapp.com -->
    <title>background</title>
    <desc>Created with Sketch.</desc>
    <defs>
        <rect id="path-1" x="0" y="0" width="359" height="217" rx="8"></rect>
        <path d="M54.6670344,89.5503155 C53.629771,91.0215582 52.4020615,92.2444578 51.029597,93.1378278 L6.0244434,103.247143 C3.92109872,104.611568 1.46095258,103.404292 0.454772426,100.544177 C0.442284375,100.494259 0.435148345,100.46098 0.426228309,100.427702 C-0.426527208,97.9854184 0.028394668,95.0384087 1.5394489,93.2820353 L35.0395391,77.722416 C37.21246,74.6256524 38.4791052,70.5490173 38.6057698,66.2616174 C38.6057698,66.2616174 39.3122367,17.8134442 40.113256,15.2805689 L40.11504,15.2214068 L40.1382321,15.1973722 C40.3920383,14.4105783 40.7096532,13.6493018 41.0863773,12.9217376 C43.2574744,7.38943355 48.1709087,4.15687672 54.9751548,2.3830317 C57.4690067,1.72037607 60.2193691,1.26783076 63.1799276,0.966133884 C76.7945777,-0.420235084 90.5748908,-0.314282016 104.17529,1.28219728 C105.65557,1.44741223 107.194632,1.6880514 108.719445,2.00591061 C112.651876,2.80912902 116.576507,4.12443152 119.673475,6.22510123 C123.253921,7.64482296 126.23969,10.5356013 127.672583,14.4505135 C128.597546,16.9782672 126.761851,51.1825501 125.790641,67.8732383 C125.466904,73.3509326 125.249893,76.9341532 125.249893,76.9341532 C125.203645,79.7713913 124.618429,82.4404703 123.599191,84.7356635 C123.584961,84.7660753 123.568952,84.7821756 123.568952,84.7821756 C123.383959,85.2150959 123.168728,85.6354938 122.951717,86.0380023 C122.812973,86.0236909 122.674229,85.9914902 122.535484,85.9753899 C119.235859,89.5747109 115.009492,91.7160564 111.028596,91.7482571 L58.0157964,92.2742016 C56.3062879,92.2853576 55.0699074,91.1859608 54.6670344,89.5503155 Z M57.7107853,82.4494831 C58.1910176,82.1233802 58.7042248,81.8708565 59.2342565,81.7105881 L62.257947,80.9837675 C60.8193732,81.0621879 59.3812796,81.1489718 57.9437706,81.2441191 C57.8763224,81.6509805 57.7985407,82.0529815 57.7107853,82.4494831 Z" id="path-3"></path>
        <path d="M18.2696746,21.2424803 L24.6570255,42.1132173 C24.8041364,42.5947135 25.4575825,42.6071049 25.6252206,42.1326895 L35.3755955,14.1616536 L25.1120429,0 L8.00612208,10.6212402 L0.0210782163,39.7570722 C-0.124322111,40.2899044 0.517149922,40.6669584 0.883216628,40.2651215 L18.2696746,21.2424803 Z" id="path-5"></path>
        <path d="M24.4864693,8.09103103 C25.0290287,2.53777746 30.5993097,0 36.7,0 C43.6495056,0 49.2828571,3.75602702 49.2828571,8.38857143 C49.2828571,13.0211158 43.5376098,16.3365003 36.7,17.201717 C34.400746,17.4926597 32.6175503,17.6107883 31.0266807,16.506168 C28.7313634,14.9124145 25.4747663,11.4491485 24.6046393,10.6189875 C24.3167116,10.9996404 22.8925069,12.2985608 19.953449,15.0766703 C18.0680172,16.7771429 15.3449052,16.7771429 12.5828571,16.7771429 C5.63511578,16.7771429 0,13.0211158 0,8.38857143 C0,3.75602702 5.63511578,0 12.5828571,0 C18.592096,0 23.4876521,3.19744193 24.4864693,8.09103103 Z" id="path-7"></path>
        <path d="M26.627934,20.5410392 C25.6926778,18.6226046 25.1657143,16.4530847 25.1657143,14.1557143 C25.1657143,6.33753376 31.2685246,0 38.7971429,0 C46.3257611,0 52.4285714,6.33753376 52.4285714,14.1557143 C52.4285714,21.9738948 46.3257611,28.3114286 38.7971429,28.3114286 C38.7116976,28.3114286 38.626436,28.3106122 38.5413649,28.3089867 C38.5441748,28.3126019 38.5469839,28.3162184 38.5497921,28.319836 C44.4719741,35.9469027 44.4719741,46.8902401 38.5497921,54.5173069 C29.8587054,65.7132787 13.1331681,65.7132787 4.44030184,54.5173069 C-1.48010061,46.8902401 -1.48010061,35.9469027 4.44030184,28.319836 C9.96605052,21.2029513 18.737558,18.6100194 26.6279383,20.5410402 Z" id="path-9"></path>
        <path d="M13.0969011,1.04857143 L19.9228571,1.04857143 L19.9228571,5.82298355 C25.5482582,9.05264156 29.36,15.2049545 29.36,22.290375 C29.36,27.8823854 26.9755408,32.9000227 23.2048501,36.3570989 C22.3653512,37.2999379 24.0566946,40.1429045 23.047885,40.8942857 L14.3498296,17.5956944 C6.20724512,16.2693574 0,9.3663923 0,1.04857143 L1.05744384,1.04857143 C1.04507233,1.0183589 1.0452543,1.00151666 1.06041978,1.00063753 C2.97045626,0.892265233 5.05685807,0.48045051 7.14502353,0 C7.95983133,0.419039543 8.93160428,0.666489617 10.0726879,0.666489617 C10.8187133,0.666489617 11.5012471,0.558117322 12.127344,0.368465805 L13.0969011,1.04857143 Z" id="path-11"></path>
        <path d="M101.540507,66.06 L3.32020829,66.06 C1.48596735,66.06 0,64.5635825 0,62.7200392 L0,3.34175937 C0,1.49641754 1.48596735,0 3.32020829,0 L101.540507,0 C103.371176,0 104.857143,1.49641754 104.857143,3.34175937 L104.857143,62.7200392 C104.857143,64.5635825 103.371176,66.06 101.540507,66.06" id="path-13"></path>
        <polygon id="path-15" points="0 200.277143 295.697143 200.277143 295.697143 0 0 0"></polygon>
        <path d="M251.657143,19.9228571 L19.1461167,19.9228571 L19.1461167,1.89763068 L0,1.89763068 L0,1.04857143 L251.657143,1.04857143 L251.657143,0 L315.62,0 L315.62,200.277143 L251.657143,200.277143 L251.657143,19.9228571 Z" id="path-17"></path>
        <path d="M251.657143,19.9228571 L19.1461167,19.9228571 L19.1461167,1.89763068 L0,1.89763068 L0,1.04857143 L251.657143,1.04857143 L251.657143,0 L315.62,0 L315.62,200.277143 L251.657143,200.277143 L251.657143,19.9228571 Z" id="path-19"></path>
        <polygon id="path-21" points="0 7.34 334.494286 7.34 334.494286 0 0 0"></polygon>
    </defs>
    <g id="Symbols" stroke="none" stroke-width="1" fill="none" fill-rule="evenodd">
        <g id="footer" transform="translate(-1170.000000, -65.000000)">
            <g id="stat">
                <g transform="translate(1170.000000, 65.000000)">
                    <g id="background">
                        <mask id="mask-2" fill="white">
                            <use xlink:href="#path-1"></use>
                        </mask>
                        <g id="Rectangle"></g>
                        <g id="colour_highlight" mask="url(#mask-2)" fill="#18C8CB">
                            <g transform="translate(-17.000000, -11.000000)">
                                <rect x="0" y="0" width="414" height="296"></rect>
                            </g>
                        </g>
                        <g id="image_woman_desk" mask="url(#mask-2)">
                            <g transform="translate(33.000000, 19.000000)" id="woman_desk">
                                <g transform="translate(15.728571, 9.437143)">
                                    <path d="M209.212034,271.958781 L209.212034,320.862857 L186.989501,320.862857 L184.6784,303.074183 C184.6784,303.074183 178.868599,256.769176 173.108653,205.015258 C173.048115,204.485055 173.046335,203.95306 173.014286,203.422857 L210.762857,203.422857 L209.212034,271.958781 Z" id="Fill-1" fill="#FFACEA"></path>
                                    <path d="M208.665714,331.348571 L175.507194,331.348571 C174.51996,331.348571 173.640423,330.933019 173.001413,330.271489 C172.362403,329.608096 171.965714,328.696862 171.965714,327.670093 C171.965714,325.948252 173.112701,324.45748 174.742536,324.077333 L186.327286,321.408852 L186.262667,320.862857 L208.665714,320.862857 L208.665714,331.348571 Z" id="Fill-3" fill="#2062A9"></path>
                                    <path d="M99.1592057,328.202857 C99.1592057,327.417703 99.4947486,326.683533 100.069366,326.105714 C99.4947486,326.683533 99.1592057,327.417703 99.1592057,328.202857" id="Fill-5" fill="#2062A9"></path>
                                    <path d="M101.711429,324.008571 L113.245714,321.911429 L101.711429,324.008571 Z" id="Fill-7" fill="#2062A9"></path>
                                    <path d="M99.1015343,325.515369 C99.3888429,325.156757 99.7348714,324.84638 100.127037,324.598917 C99.7348714,324.848477 99.3888429,325.156757 99.1015343,325.515369" id="Fill-9" fill="#2062A9"></path>
                                    <path d="M98.5657358,201.415877 C98.5657358,202.565423 98.6300648,203.729316 98.756936,204.878862 C104.539401,256.690929 110.377261,303.058344 110.377261,303.058344 L112.69132,320.862857 L134.993839,320.862857 L134.993839,271.905825 L136.550244,203.284562 L172.535191,203.284562 L233.949763,203.284562 C237.512877,203.284562 241.158189,202.629984 244.665908,201.415877 C255.90562,197.531452 265.749749,187.958477 267.216808,176.079237 C268.2014,168.132843 264.741928,161.108238 260.467621,154.70055 C259.363305,153.039895 247.810883,138.863356 248.293351,138.411429 C247.496386,139.146708 190.313235,139.204095 190.313235,139.204095 C186.62861,156.764711 171.22002,169.36309 153.327613,169.436618 L129.624151,169.53346 C120.728875,169.727143 112.280329,173.667163 106.419239,180.376136 C101.330097,186.209948 98.5568012,193.727728 98.5657358,201.415877" id="Fill-11" fill="#FFACEA"></path>
                                    <path d="M101.317166,324.786611 C100.841114,324.893566 100.400714,325.078114 100.008549,325.327674 C100.400714,325.078114 100.841114,324.893566 101.317166,324.786611" id="Fill-13" fill="#2062A9"></path>
                                    <path d="M99.344656,325.370578 C99.5905431,325.051925 99.8866846,324.777996 100.222312,324.556244 C100.559733,324.334491 100.936641,324.170506 101.342265,324.077333 L112.925882,321.408852 L112.863064,320.862857 L135.265714,320.862857 L135.265714,331.348571 L102.108643,331.348571 C101.11971,331.348571 100.242054,330.933019 99.6049015,330.271489 C99.2854277,329.939792 99.0251822,329.546601 98.8457025,329.108687 C98.6662229,328.670773 98.5657143,328.184409 98.5657143,327.670093 C98.5657143,326.809172 98.8546765,326.006019 99.344656,325.370578" id="Fill-15" fill="#2062A9"></path>
                                    <g id="top" transform="translate(133.168571, 81.788571)">
                                        <mask id="mask-4" fill="white">
                                            <use xlink:href="#path-3"></use>
                                        </mask>
                                        <use id="Mask" fill="#FFFFFF" xlink:href="#path-3"></use>
                                    </g>
                                    <g id="neckachief" transform="translate(210.626446, 111.661019) rotate(-12.000000) translate(-210.626446, -111.661019) translate(192.800732, 90.270161)">
                                        <mask id="mask-6" fill="white">
                                            <use xlink:href="#path-5"></use>
                                        </mask>
                                        <use id="Mask" fill="#18C8CB" xlink:href="#path-5"></use>
                                        <g id="colour_base" mask="url(#mask-6)" fill="#383748">
                                            <g transform="translate(-11.791865, -2.022930)">
                                                <rect x="0" y="0" width="56" height="54"></rect>
                                            </g>
                                        </g>
                                    </g>
                                    <g id="colar" transform="translate(188.742857, 78.642857)">
                                        <mask id="mask-8" fill="white">
                                            <use xlink:href="#path-7"></use>
                                        </mask>
                                        <use id="Mask" fill="#FFFFFF" xlink:href="#path-7"></use>
                                        <g id="colour_background" mask="url(#mask-8)" fill="#EAEAF0">
                                            <g transform="translate(-19.922857, -16.777143)">
                                                <rect x="0" y="0" width="90" height="47"></rect>
                                            </g>
                                        </g>
                                    </g>
                                    <g id="backhair" transform="translate(187.694286, 0.000000)">
                                        <mask id="mask-10" fill="white">
                                            <use xlink:href="#path-9"></use>
                                        </mask>
                                        <use id="Mask" fill="#2062A9" xlink:href="#path-9"></use>
                                        <g id="colour_base" mask="url(#mask-10)" fill="#383748">
                                            <g transform="translate(-2.097143, -1.048571)">
                                                <rect x="0" y="0" width="60" height="64"></rect>
                                            </g>
                                        </g>
                                    </g>
                                    <path d="M188.770739,47.1244514 C189.234822,55.3178515 195.815381,62.1209113 203.989413,62.8459909 C208.264057,63.2248451 212.24321,62.0067113 215.393901,59.7082088 C219.576091,56.6628742 222.297143,51.717831 222.297143,46.1437812 C222.297143,36.8700125 214.79023,29.36 205.526689,29.36 C205.176814,29.36 204.814249,29.3726889 204.462561,29.3980667 C195.363987,29.9600034 188.239581,37.7600477 188.770739,47.1244514" id="Fill-29" fill="#FBC4A4"></path>
                                    <g id="fronthair" transform="translate(197.131429, 23.068571)">
                                        <mask id="mask-12" fill="white">
                                            <use xlink:href="#path-11"></use>
                                        </mask>
                                        <use id="Mask" fill="#2062A9" xlink:href="#path-11"></use>
                                        <g id="colour_base" mask="url(#mask-12)" fill="#383748">
                                            <g transform="translate(-17.825714, -26.214286)">
                                                <rect x="0" y="0" width="65" height="71"></rect>
                                            </g>
                                        </g>
                                    </g>
                                    <path d="M217.389328,87.0313811 L207.829688,86.9940848 C205.606141,86.9869807 203.736788,85.3370607 203.466671,83.1454555 L200.277143,57.2688851 L218.131703,48.2342857 L219.391056,53.2479822 L223.285393,80.3091561 C223.795217,83.8665185 221.008181,87.0455893 217.389328,87.0313811" id="Fill-33" fill="#FBC4A4"></path>
                                    <path d="M208.665714,44.5652076 C208.665714,48.3284628 211.716839,51.38 215.481429,51.38 C219.246018,51.38 222.297143,48.3284628 222.297143,44.5652076 C222.297143,40.8001086 219.246018,37.7485714 215.481429,37.7485714 C211.716839,37.7485714 208.665714,40.8001086 208.665714,44.5652076" id="Fill-39" fill="#FBC4A4"></path>
                                    <g id="laptop" transform="translate(46.137143, 83.885714)">
                                        <mask id="mask-14" fill="white">
                                            <use xlink:href="#path-13"></use>
                                        </mask>
                                        <use id="Mask" fill="#2062A9" xlink:href="#path-13"></use>
                                        <g id="colour_base" mask="url(#mask-14)" fill="#383748">
                                            <g transform="translate(-14.680000, -5.242857)">
                                                <rect x="0" y="0" width="124" height="82"></rect>
                                            </g>
                                        </g>
                                    </g>
                                    <path d="M102.76,116.391429 C102.76,119.28782 100.413534,121.634286 97.5171429,121.634286 C94.6207516,121.634286 92.2742857,119.28782 92.2742857,116.391429 C92.2742857,113.495037 94.6207516,111.148571 97.5171429,111.148571 C100.413534,111.148571 102.76,113.495037 102.76,116.391429" id="laptopdot" fill="#FFFFFF"></path>
                                    <g id="desk" transform="translate(18.874286, 155.188571)">
                                        <mask id="mask-16" fill="white">
                                            <use xlink:href="#path-15"></use>
                                        </mask>
                                        <use id="Mask" fill="#6CCEFF" xlink:href="#path-15"></use>
                                        <g id="colour_base" mask="url(#mask-16)" fill="#383748">
                                            <g transform="translate(-1.048571, 0.000000)">
                                                <rect x="0" y="0" width="300" height="209"></rect>
                                            </g>
                                        </g>
                                    </g>
                                    <g id="shadow" transform="translate(0.000000, 155.188571)">
                                        <mask id="mask-18" fill="white">
                                            <use xlink:href="#path-17"></use>
                                        </mask>
                                        <use id="Mask" fill="#3093D0" xlink:href="#path-17"></use>
                                        <g id="colour_base" mask="url(#mask-18)" fill="#383748">
                                            <g transform="translate(17.825714, 0.000000)">
                                                <rect x="0" y="0" width="300" height="209"></rect>
                                            </g>
                                        </g>
                                        <mask id="mask-20" fill="white">
                                            <use xlink:href="#path-19"></use>
                                        </mask>
                                        <use id="Mask" fill-opacity="0.1" fill="#000000" xlink:href="#path-19"></use>
                                    </g>
                                    <g id="rim" transform="translate(0.000000, 149.945714)">
                                        <mask id="mask-22" fill="white">
                                            <use xlink:href="#path-21"></use>
                                        </mask>
                                        <use id="Mask" fill="#FFFFFF" xlink:href="#path-21"></use>
                                    </g>
                                </g>
                            </g>
                        </g>
                    </g>
                </g>
            </g>
        </g>
    </g>
</svg>