<?xml version="1.0" encoding="UTF-8"?>
<svg width="372px" height="238px" viewBox="0 0 372 238" version="1.1" xmlns="http://www.w3.org/2000/svg" xmlns:xlink="http://www.w3.org/1999/xlink">
    <!-- Generator: Sketch 54.1 (76490) - https://sketchapp.com -->
    <title>logo_new</title>
    <desc>Created with Sketch.</desc>
    <defs>
        <path d="M305.715942,148.576674 C309.265942,161.253674 307.665942,174.553674 301.212942,186.026674 C292.848942,200.895674 277.241942,210.616674 260.482942,211.394674 L260.319942,211.402674 L260.157942,211.402674 L68.4849419,211.399674 C66.7209419,211.549674 65.0799419,211.621674 63.4789419,211.621674 C30.3889419,211.621674 3.46794194,184.435674 3.46794194,151.020674 C3.46794194,134.976674 9.61694194,119.855674 20.7819419,108.443674 C30.3419419,98.6726742 42.6339419,92.5796742 55.9389419,90.9036742 C58.2729419,60.0366742 85.6339419,35.5966742 118.930942,35.5966742 C142.521942,35.5966742 163.831942,47.9586742 174.664942,67.1556742 C181.747942,62.3556742 190.066942,59.1576742 198.863942,57.8596742 L198.863942,64.9496742 C188.284942,66.7016742 178.944942,71.5006742 172.098942,78.2716742 C164.575942,57.5286742 143.622942,42.5966742 118.930942,42.5966742 C87.9179419,42.5966742 62.7779419,66.1416742 62.7779419,95.1866742 C62.7779419,95.9416742 62.8049419,96.6896742 62.8389419,97.4356742 C33.8579419,97.7846742 10.4679419,121.635674 10.4679419,151.020674 C10.4679419,180.623674 34.2019419,204.621674 63.4789419,204.621674 C65.0649419,204.621674 66.6319419,204.537674 68.1819419,204.399674 L260.157942,204.402674 C274.235942,203.748674 287.693942,195.783674 295.111942,182.595674 C306.559942,162.241674 299.340942,136.460674 278.986942,125.012674 C272.437942,121.327674 265.324942,119.581674 258.309942,119.581674 C256.337942,119.581674 254.374942,119.719674 252.433942,119.990674 C254.313942,115.530674 255.341942,110.710674 255.341942,105.681674 C255.341942,97.2106742 252.422942,89.3376742 247.424942,82.7726742 L255.849942,82.7726742 C259.986942,89.5986742 262.341942,97.3996742 262.341942,105.681674 C262.341942,108.047674 262.151942,110.391674 261.774942,112.704674 C268.994942,113.220674 276.069942,115.339674 282.418942,118.911674 C293.892942,125.364674 302.165942,135.900674 305.715942,148.576674 Z M232.958654,18.9892464 C232.983927,18.9876387 233.007992,18.9858093 233.033258,18.9869492 C233.986846,18.9950869 234.899904,22.7217833 235.495706,27.8292482 C236.027413,31.9370263 236.371053,35.0983308 236.09357,44.7858683 L242.302715,48.65522 C242.293508,48.3846198 242.288156,48.1107287 242.284698,47.8279384 L242.345222,47.8315533 C242.332111,47.6564539 242.637808,47.4861568 242.625367,47.3074317 L245.127883,47.3647857 C245.115493,47.5819373 245.489799,47.8068585 245.472709,48.0156497 L245.509506,48.0179074 C245.460481,48.4779988 245.645055,50.3560188 245.590527,50.7066364 L257.147845,57.9101393 L256.973767,62.8532596 L235.796451,54.9893764 L235.711842,54.9565977 L235.49918,54.9450433 C235.012001,59.6969722 234.262607,65.1909927 233.560534,69.9434531 L237.820048,74.4887504 L242.087294,78.9827346 L242.084932,79.0387822 L242.0839,79.0538374 L242.041926,80.2964616 L231.814207,75.7395227 L221.029398,79.8773476 L221.041052,78.633905 L221.039669,78.6184062 L221.039938,78.5642237 L225.494446,74.2430576 L229.942836,69.8725345 C229.443301,65.0943899 228.927692,59.5757916 228.641811,54.8078842 L228.429325,54.8116068 L228.343654,54.8413622 L206.849627,61.8543216 L206.886278,56.9074619 L218.738673,50.1705849 C218.699603,49.8182772 218.963903,47.9494464 218.934378,47.4886782 L218.972284,47.4876405 C218.963777,47.2781484 219.347484,47.0681921 219.342625,46.8511225 L221.846397,46.8922127 C221.826757,47.0715453 222.124833,47.2534803 222.102901,47.4276437 L222.16388,47.4260939 C222.149427,47.7098443 222.131599,47.9834781 222.111586,48.2527121 L228.479727,44.633527 C228.612966,34.9439976 229.091716,31.797982 229.795784,27.7161631 C230.608237,22.6365853 231.678535,18.9491475 232.631514,18.9781661 C232.65601,18.9794147 232.680613,18.9814328 232.706093,18.9841117 C232.730159,18.9822823 232.754994,18.9803442 232.779382,18.9808233 C232.797731,18.9801936 232.814748,18.9840678 232.832427,18.9870638 C232.850123,18.9845646 232.867487,18.9825046 232.885174,18.982753 C232.909563,18.9832321 232.934274,18.9860197 232.958654,18.9892464 Z M74.7322658,108.869361 C78.363139,105.238488 82.8998169,103.41662 88.347972,103.41662 C94.0193532,103.41662 98.7338762,105.390925 102.496925,109.327204 L96.9678797,114.856249 C94.7175951,112.304911 91.8424472,111.035773 88.347972,111.035773 C85.0785475,111.035773 82.3512474,112.146705 80.1706054,114.379267 C77.8761366,116.621832 76.7341615,119.333913 76.7341615,122.526196 C76.7341615,125.72255 77.8787228,128.463438 80.1652912,130.750006 C82.3473503,132.932065 85.0767287,134.01662 88.347972,134.01662 C91.8422886,134.01662 94.7183186,132.779106 96.969414,130.288293 L102.498014,135.718168 C98.609498,139.828435 93.8925967,141.882547 88.347972,141.882547 C83.01381,141.882547 78.474136,139.981623 74.7356952,136.186435 C70.9336747,132.441161 69.0327503,127.901487 69.0327503,122.567325 C69.0327503,117.235828 70.9319834,112.669643 74.7322658,108.869361 Z M118.548164,112.143206 C117.167177,112.935995 116.079812,114.009661 115.286966,115.365171 C114.494274,116.720419 114.099887,118.216644 114.099887,119.852809 L114.099887,142.787386 L106.398476,142.787386 L106.398476,102.676297 L114.099887,102.676297 L114.099887,105.881642 C116.841442,104.127197 119.808303,103.252104 122.999182,103.252104 C124.803684,103.252104 126.608249,103.524243 128.412791,104.069668 L128.412791,112.891341 C126.607478,111.607899 124.805082,110.953515 122.999182,110.953515 C121.413144,110.953515 119.929521,111.350205 118.548164,112.143206 Z M149.424585,141.964805 C146.190089,141.964805 143.125591,141.171211 140.235503,139.584477 C136.65511,137.652201 133.956467,134.838126 132.140681,131.141017 L130.884809,128.126924 C129.397972,122.955027 129.933309,118.011088 132.49028,113.294898 C135.043728,108.585204 138.902066,105.492499 144.057665,104.019529 C149.163126,102.487891 154.070309,103.024866 158.779107,105.632899 C161.673797,107.166542 164.001244,109.32411 165.759412,112.103165 C166.669146,113.524625 167.437726,115.202638 168.061528,117.139031 L168.845706,120.9619 L140.066305,129.359289 C141.08884,130.838056 142.363756,132.006234 143.893065,132.861778 C146.699107,134.367274 149.647893,134.664044 152.739221,133.75483 C156.036996,132.784896 158.463775,130.737275 160.018939,127.611022 L166.827927,131.360899 C164.220074,136.326601 160.262782,139.605352 154.956021,141.19738 C153.133398,141.710092 151.293153,141.964805 149.424585,141.964805 Z M158.756041,115.548022 C157.778398,114.257099 156.536988,113.192597 155.033672,112.352508 C153.325102,111.4206 151.480846,110.953515 149.506843,110.953515 C148.414028,110.953515 147.321321,111.110117 146.228551,111.422337 C143.118743,112.355338 140.804507,114.224343 139.2972,117.031053 C138.449977,118.59174 137.965041,120.225865 137.84209,121.936284 L158.756041,115.548022 Z M223.997647,103.005329 L204.407834,144.525332 L194.863741,125.272593 L186.145623,143.613538 L165.928288,103.005329 L174.603851,103.005329 L185.952937,125.941595 L190.436244,116.405672 L183.7793,103.005329 L192.370338,103.005329 L204.213068,126.770271 L215.419947,103.005329 L223.997647,103.005329 Z M74.7625602,154.635139 C78.3853548,151.012345 82.9120578,149.194946 88.347972,149.194946 C93.9922978,149.194946 98.6869682,151.154452 102.43698,155.062045 L96.9697895,160.529235 C94.7155798,157.991344 91.8399437,156.728414 88.347972,156.728414 C85.0661854,156.728414 82.3287718,157.843886 80.1399567,160.084815 C77.8375915,162.335081 76.6913188,165.057376 76.6913188,168.26168 C76.6913188,171.469784 77.8400053,174.220793 80.1349968,176.515785 C82.3251344,178.705922 85.0644879,179.794946 88.347972,179.794946 C91.839794,179.794946 94.7162442,178.56334 96.9712069,176.085588 L102.437966,181.454726 C98.5635564,185.535666 93.8666908,187.575188 88.347972,187.575188 C83.0257631,187.575188 78.496264,185.67852 74.765761,181.891398 C70.972261,178.154517 69.075593,173.625018 69.075593,168.302809 C69.075593,162.983087 70.9706825,158.427017 74.7625602,154.635139 Z M106.441319,188.480027 L106.441319,145.328817 L114.057045,145.328817 L114.057045,188.480027 L106.441319,188.480027 Z M151.164835,181.970479 C147.428829,185.706486 142.900605,187.575188 137.579424,187.575188 C132.258975,187.575188 127.716827,185.693294 123.952883,181.92935 C120.188939,178.165406 118.307045,173.623258 118.307045,168.302809 C118.307045,162.982361 120.188939,158.440212 123.952883,154.676268 C127.716827,150.912324 132.258975,149.03043 137.579424,149.03043 C142.899872,149.03043 147.442021,150.912324 151.205965,154.676268 C154.969908,158.440212 156.851803,162.982361 156.851803,168.302809 C156.851803,173.622531 154.956713,178.178601 151.164835,181.970479 Z M149.236077,168.26168 C149.236077,165.057376 148.089804,162.335081 145.787552,160.084931 C143.547152,157.792429 140.824857,156.646156 137.620553,156.646156 C134.411669,156.646156 131.659685,157.781541 129.364018,160.051122 C127.070263,162.318811 125.92277,165.055461 125.92277,168.26168 C125.92277,171.467899 127.070263,174.204549 129.364018,176.472239 C131.659127,178.741267 134.397177,179.877204 137.579424,179.877204 C140.76167,179.877204 143.49972,178.741267 145.794829,176.472239 C148.088584,174.204549 149.236077,171.467899 149.236077,168.26168 Z M177.659666,187.904221 C173.107653,187.904221 169.209651,186.283296 165.966189,183.039834 C162.722727,179.796372 161.101803,175.89837 161.101803,171.346358 L161.101803,148.454624 L168.717528,148.454624 L168.717528,171.346358 C168.717528,173.813166 169.591338,175.920109 171.338626,177.667397 C173.085914,179.414685 175.192857,180.288495 177.659666,180.288495 C180.126474,180.288495 182.233417,179.414685 183.980705,177.667397 C185.727993,175.920109 186.601803,173.813166 186.601803,171.346358 L186.601803,148.783656 L194.217528,148.783656 L194.217528,188.480027 L186.601803,188.480027 L186.601803,185.249195 C183.893459,187.019711 180.912607,187.904221 177.659666,187.904221 Z M216.094746,187.575188 C210.774298,187.575188 206.232149,185.693294 202.468205,181.92935 C198.704261,178.165406 196.822367,173.623258 196.822367,168.302809 C196.822367,162.982361 198.704261,158.440212 202.468205,154.676268 C206.232149,150.912324 210.774298,149.03043 216.094746,149.03043 C220.426418,149.03043 224.312262,150.34492 227.751399,152.976588 L227.751399,82.9772044 L231.5101,82.9772044 L235.367125,82.9772044 L235.367125,188.480027 L227.751399,188.480027 L227.751399,183.560798 C224.31206,186.238305 220.426084,187.575188 216.094746,187.575188 Z M227.751399,168.26168 C227.751399,165.057376 226.605127,162.335081 224.302875,160.084931 C222.062475,157.792429 219.340179,156.646156 216.135875,156.646156 C212.926991,156.646156 210.175008,157.781541 207.879341,160.051122 C205.585586,162.318811 204.438093,165.055461 204.438093,168.26168 C204.438093,171.467899 205.585586,174.204549 207.879341,176.472239 C210.174449,178.741267 212.912499,179.877204 216.094746,179.877204 C219.276993,179.877204 222.015043,178.741267 224.310152,176.472239 C226.603907,174.204549 227.751399,171.467899 227.751399,168.26168 Z" id="path-1"></path>
    </defs>
    <g id="logo_new" stroke="none" stroke-width="1" fill="none" fill-rule="evenodd">
        <g id="base_colour" transform="translate(30.532258, 4.241935)">
            <mask id="mask-2" fill="white">
                <use xlink:href="#path-1"></use>
            </mask>
            <use id="Mask" fill="#383748" xlink:href="#path-1"></use>
        </g>
    </g>
</svg>