<?xml version="1.0" encoding="UTF-8"?>
<svg width="372px" height="237px" viewBox="0 0 372 237" version="1.1" xmlns="http://www.w3.org/2000/svg" xmlns:xlink="http://www.w3.org/1999/xlink">
    <!-- Generator: Sketch 54.1 (76490) - https://sketchapp.com -->
    <title>original_logo</title>
    <desc>Created with Sketch.</desc>
    <defs>
        <path d="M181.582038,44.8799275 L186.249764,51.0621181 L187.125587,50.0569691 C187.125587,50.0569691 187.403214,49.8018121 187.220959,49.3119705 L185.180202,42.3962658 C185.180202,42.3962658 185.063359,42.0896779 185.104803,41.8200403 C186.338645,40.9826658 188.309995,39.4966631 190.385705,37.3460537 L190.429646,37.3840027 L190.437635,37.3909933 L200.228476,26.1506013 L203.473614,28.872443 C203.14955,29.2539302 202.961802,29.6189396 203.053179,29.6993315 C203.145555,29.7797235 203.485598,29.540545 203.820148,29.1635517 L204.752894,29.9455007 L205.841431,31.6507087 C205.581281,31.9837611 205.442967,32.2813611 205.523359,32.3527651 C205.59676,32.4161799 205.825952,32.2788644 206.084605,32.0311973 L208.399992,35.6593208 C208.122366,36.0063544 207.969571,36.3219302 208.053458,36.3953315 C208.130355,36.4617423 208.374527,36.310945 208.646162,36.045302 L212.928905,42.7567812 C212.928905,42.7567812 214.313544,41.4215758 213.943541,40.3250497 L208.286645,25.888953 L208.6921,25.4240779 C208.730548,25.4555356 208.763005,25.4829987 208.787971,25.5044698 C209.070092,25.7506389 209.315762,25.4680188 209.315762,25.4680188 C210.766811,24.2461611 211.806913,22.6093611 211.806913,22.6093611 C212.207874,22.0211517 211.808411,21.7829718 211.808411,21.7829718 C211.808411,21.7829718 211.089378,21.2127383 210.587053,20.7743275 C210.085227,20.3369154 209.732701,20.8037879 209.732701,20.8037879 C209.732701,20.8037879 209.446586,20.942102 208.462409,22.0725826 C207.91814,22.697243 207.608057,23.3049262 207.439284,23.7243624 L206.025184,20.1147141 C206.025184,20.1147141 205.898355,19.8410819 206.47508,18.9792403 L216.334328,7.65995436 L216.326339,7.65346309 L216.322344,7.64996779 C216.403735,7.54610738 216.784223,7.05876242 217.061351,6.66728859 C217.061351,6.66728859 219.43516,2.7640349 219.355767,0.851605369 C219.416685,0.571981208 219.389721,0.350778523 219.254403,0.232936913 C219.228937,0.210467114 219.198478,0.193489933 219.16752,0.179508725 C219.164025,0.178510067 219.162027,0.177012081 219.159031,0.176013423 C219.157034,0.173516779 219.155037,0.170520805 219.154038,0.168024161 C219.136062,0.13806443 219.11509,0.1116 219.089625,0.0891302013 C218.953807,-0.0287114094 218.730607,-0.0257154362 218.462468,0.0741503356 C216.557528,0.257404027 213.016787,3.14402416 213.016787,3.14402416 C212.667257,3.47258255 212.235337,3.91598658 212.144959,4.01085906 L212.140964,4.00786309 L212.132476,4.00087248 L202.274226,15.3191597 C201.498768,16.0092322 201.210656,15.9218497 201.210656,15.9218497 L197.440723,15.0160671 C197.833195,14.7908698 198.392943,14.3998953 198.937211,13.7752349 C199.921888,12.644255 200.019257,12.3426604 200.019257,12.3426604 C200.019257,12.3426604 200.4337,11.9302148 199.931874,11.4923034 C199.428551,11.0548913 198.765442,10.421243 198.765442,10.421243 C198.765442,10.421243 198.473834,10.0577315 197.946043,10.5365879 C197.946043,10.5365879 196.467531,11.7899034 195.45639,13.395745 C195.45639,13.395745 195.209721,13.6778658 195.492341,13.9245342 C195.517807,13.9460054 195.549764,13.9744671 195.584717,14.0074228 L195.180261,14.4732966 L180.105023,10.8516644 C178.968052,10.6349557 177.835074,12.1888671 177.835074,12.1888671 L185.071348,15.5114013 C184.845152,15.8159919 184.729308,16.0786389 184.805705,16.145549 C184.890092,16.218451 185.181201,16.0247114 185.487788,15.702145 L189.398532,17.4977315 C189.189313,17.7873423 189.084954,18.0330121 189.157356,18.0969262 C189.238747,18.1678309 189.514376,17.9890711 189.80898,17.6859785 L191.648009,18.5298443 L192.549797,19.346247 C192.222736,19.7297315 192.031992,20.0997342 192.124368,20.1801262 C192.216245,20.2595195 192.552293,20.0238362 192.886344,19.6498389 L196.027622,22.4910201 L186.236282,33.7314121 L186.243772,33.7384027 L186.287713,33.776851 C184.442693,36.1281906 183.241308,38.2847919 182.580696,39.6214953 C182.319547,39.6998899 181.999976,39.6259893 181.999976,39.6259893 L174.869061,38.5529315 C174.359246,38.4405826 174.144535,38.7501664 174.144535,38.7501664 L173.269211,39.7553154 L180.03312,43.5307409 C179.036959,45.1036268 178.81276,46.0753208 178.81276,46.0753208 L178.978038,46.2191275 L179.063923,46.2945262 L179.229201,46.4383329 C179.229201,46.4383329 180.160948,46.0823114 181.582038,44.8799275 L181.582038,44.8799275 Z M352.873308,114.487868 L341.499096,89.0106121 L337.928894,89.0106121 L351.544094,118.540421 L354.384277,118.540421 L366.852519,89.0106121 L363.523493,89.0106121 L352.873308,114.487868 Z M335.750822,114.487868 L324.311697,89.0106121 L320.804411,89.0106121 L334.416116,118.540421 L337.200374,118.540421 L343.310162,104.235648 L341.606951,100.489184 L335.750822,114.487868 Z M368.670575,149.457866 C368.670575,145.504679 367.643955,142.400352 365.584223,140.137393 C363.406151,137.760089 360.319799,136.570687 356.326666,136.570687 C352.61116,136.570687 349.689587,137.838983 347.549464,140.382064 C345.535171,142.761366 344.524529,145.7868 344.524529,149.457866 C344.524529,153.170376 345.513201,156.174338 347.490043,158.474247 C349.589222,160.976384 352.535262,162.224706 356.326666,162.224706 C360.078623,162.224706 363.078591,160.976384 365.34105,158.474247 C367.561066,156.09145 368.670575,153.087487 368.670575,149.457866 L368.670575,149.457866 Z M371.755429,123.378419 L371.755429,164.404277 L368.670575,164.404277 L368.670575,159.078435 C365.967209,163.071568 361.872213,165.067885 356.386586,165.067885 C351.704379,165.067885 348.017335,163.555417 345.313968,160.531981 C342.768889,157.666832 341.501093,153.975793 341.501093,149.457866 C341.501093,144.859047 342.792358,141.128561 345.373388,138.263911 C348.074758,135.238478 351.826715,133.724013 356.625265,133.724013 C362.033995,133.724013 366.046103,135.642934 368.670575,139.473785 L368.670575,123.378419 L371.755429,123.378419 Z M334.844041,150.850494 C334.844041,154.359278 333.977206,157.103589 332.243536,159.078435 C330.387031,161.177613 327.644717,162.224706 324.013099,162.224706 C317.723552,162.224706 314.573786,159.485388 314.573786,153.995766 L314.573786,134.874467 L311.487933,134.874467 L311.487933,154.055187 C311.487933,157.607412 312.65836,160.370199 314.998715,162.345044 C317.216234,164.161603 320.221694,165.067885 324.013099,165.067885 C328.85509,165.067885 332.464239,163.495997 334.844041,160.348228 L334.844041,164.463697 L337.932889,164.463697 L337.932889,134.874467 L334.844041,134.874467 L334.844041,150.850494 Z M305.016132,149.639621 C305.016132,145.848217 303.904626,142.792325 301.687107,140.469946 C299.465592,138.15356 296.383235,136.994118 292.42955,136.994118 C288.555756,136.994118 285.490376,138.132089 283.231912,140.411026 C280.972449,142.689962 279.842967,145.767326 279.842967,149.639621 C279.842967,153.470972 280.981437,156.528362 283.259874,158.807299 C285.541308,161.086236 288.594704,162.224706 292.42955,162.224706 C296.2609,162.224706 299.316792,161.086236 301.59523,158.807299 C303.874167,156.528362 305.016132,153.470972 305.016132,149.639621 L305.016132,149.639621 Z M303.834221,138.355289 C306.678398,141.157023 308.098988,144.918467 308.098988,149.639621 C308.098988,154.359278 306.656427,158.111235 303.773303,160.893495 C300.890178,163.675756 297.088288,165.067885 292.368631,165.067885 C287.566086,165.067885 283.767692,163.636309 280.961464,160.773157 C278.155735,157.911503 276.756615,154.197495 276.756615,149.639621 C276.756615,144.918467 278.195681,141.157023 281.084299,138.355289 C283.966924,135.553055 287.769813,134.149941 292.48897,134.149941 C297.210124,134.149941 300.991042,135.553055 303.834221,138.355289 L303.834221,138.355289 Z M270.281319,164.404277 L273.36817,164.404277 L273.36817,123.378419 L270.281319,123.378419 L270.281319,164.404277 Z M259.511794,160.409646 C257.532954,161.620019 255.173125,162.224706 252.432309,162.224706 C248.559515,162.224706 245.536578,161.136169 243.356508,158.958097 C241.179933,156.780523 240.088401,153.835482 240.088401,150.123471 C240.088401,146.211729 241.217882,143.044486 243.478344,140.624738 C245.736309,138.203992 248.921528,136.994118 253.038494,136.994118 C258.563568,136.994118 262.011434,139.57465 263.386086,144.738209 L266.227268,143.344583 C265.342956,140.11742 263.646736,137.738118 261.144599,136.20418 C258.885635,134.83502 256.223713,134.149941 253.158833,134.149941 C248.076164,134.149941 244.111992,135.621463 241.270312,138.565506 C238.424637,141.511546 237.004046,145.364368 237.004046,150.123471 C237.004046,154.641399 238.396175,158.260035 241.179933,160.984872 C243.960696,163.708711 247.730629,165.067885 252.493227,165.067885 C255.881673,165.067885 258.78527,164.321388 261.207515,162.830891 C263.910881,161.136169 265.683998,158.535165 266.529861,155.022886 L263.626763,153.753093 C263.022575,156.862913 261.64992,159.078435 259.511794,160.409646 L259.511794,160.409646 Z M316.69094,102.023122 C316.487713,98.6311812 315.307799,95.9692591 313.1497,94.0358577 C310.991601,92.0984617 308.199853,91.1292644 304.769963,91.1292644 C301.341571,91.1292644 298.526854,92.0984617 296.328809,94.0358577 C294.129265,95.9692591 292.850484,98.6311812 292.486972,102.023122 L316.69094,102.023122 Z M315.904997,92.1888403 C318.689254,94.7913423 320.079885,98.2911383 320.079885,102.68723 L320.079885,104.803885 L292.426054,104.865302 C292.830511,112.528502 296.883064,116.363348 304.588207,116.363348 C310.437346,116.363348 314.289668,113.962574 316.146172,109.16003 L319.293442,109.16003 C318.121018,112.951933 316.124701,115.613356 313.302494,117.147294 C310.842301,118.520448 307.895762,119.205528 304.465872,119.205528 C299.505539,119.205528 295.714135,117.773452 293.09166,114.908303 C290.630967,112.246881 289.400621,108.555842 289.400621,103.836185 C289.400621,99.1959221 290.801737,95.4459624 293.605968,92.5823114 C296.4097,89.7171624 300.131198,88.2855866 304.769963,88.2855866 C309.408728,88.2855866 313.120739,89.5858389 315.904997,92.1888403 L315.904997,92.1888403 Z M275.18323,93.9764376 L275.18323,88.9531893 L272.094382,88.9531893 L272.094382,118.540421 L275.18323,118.540421 L275.18323,106.679863 C275.18323,102.323718 276.069539,98.7555141 277.844653,95.9692591 C279.940336,92.742596 283.351751,91.1292644 288.071407,91.1292644 L288.071407,88.2855866 C283.673818,88.2855866 280.145061,89.3556483 277.481141,91.4927758 C276.551391,92.2607436 275.785421,93.0861342 275.18323,93.9764376 L275.18323,93.9764376 Z M261.324857,114.546789 C259.348014,115.755664 256.989684,116.363348 254.245372,116.363348 C250.374575,116.363348 247.346146,115.273812 245.169571,113.093742 C242.991499,110.91567 241.902962,107.971627 241.902962,104.259117 C241.902962,100.348872 243.028948,97.1816295 245.289909,94.7608832 C247.547375,92.3416349 250.736588,91.1292644 254.851558,91.1292644 C260.378629,91.1292644 263.825995,93.7117933 265.19865,98.873855 L268.040331,97.4837235 C267.154022,94.2570604 265.459799,91.8772591 262.95916,90.3413235 C260.700696,88.9726631 258.036776,88.2855866 254.971896,88.2855866 C249.888728,88.2855866 245.925056,89.7586067 243.07988,92.7026497 C240.2377,95.6491893 238.817109,99.5020107 238.817109,104.259117 C238.817109,108.779042 240.207241,112.399675 242.991499,115.121017 C245.773759,117.843858 249.547187,119.205528 254.30629,119.205528 C257.694736,119.205528 260.599831,118.460529 263.020578,116.968035 C265.721947,115.273812 267.497061,112.67131 268.344422,109.16003 L265.439826,107.890236 C264.835638,110.998558 263.461485,113.21458 261.324857,114.546789 L261.324857,114.546789 Z M179.362022,45.3263275 C179.362022,45.3263275 92.874269,138.826156 88.294924,142.56563 C74.6907093,153.668706 65.4096838,153.892905 50.9201589,153.826993 C39.6862583,153.772566 10.2573133,141.082123 14.7432838,109.674838 C20.1639979,71.7243463 58.5084596,75.7584242 61.1364274,75.814349 C79.4892596,76.2098174 88.7627952,82.9852107 88.7627952,82.9852107 C88.7627952,82.9852107 96.6876435,57.962843 115.45392,52.1246899 C115.45392,52.1246899 130.781818,46.1836752 151.318215,56.2955839 C150.314564,55.4612054 139.015751,39.1980644 119.414597,42.5345799 C104.119155,45.1370819 93.320669,51.2758309 83.9677401,70.2653074 C74.795069,66.5118523 62.8735925,65.3119651 56.7063817,65.3119651 C37.3444059,65.3119651 25.581716,70.758145 14.7432838,81.1072349 C3.91533745,91.4563248 0.564840805,100.915611 0.0520300671,114.449919 C-1.86539275,165.107332 49.7512301,167.807702 50.5531522,167.823681 C70.9367549,168.212158 80.0879549,162.535788 89.9322234,155.152212 C93.135418,152.749442 100.032648,145.860701 100.808105,145.081748 L179.894806,45.8566148 L179.362022,45.3263275 Z M218.373587,155.434832 C206.99588,167.113136 190.101587,167.418725 188.400374,167.418725 L88.8651576,167.418725 C88.8651576,167.418725 110.945313,156.593547 139.809082,156.558594 C153.177838,156.542405 187.358774,155.902703 188.229104,155.86775 C192.319107,155.705968 217.190178,151.583509 217.440341,126.916164 C217.584148,112.874537 213.079203,101.217705 197.947042,96.2339034 C167.976825,86.3646685 146.95508,103.63146 146.95508,103.63146 C161.210919,86.6757503 182.00447,80.7766792 203.032207,88.9456993 C220.598597,95.7785154 228.428073,110.832781 228.428073,127.885361 C228.428073,139.322988 225.044621,148.594526 218.373587,155.434832 Z" id="path-1"></path>
    </defs>
    <g id="original_logo" stroke="none" stroke-width="1" fill="none" fill-rule="evenodd">
        <g transform="translate(0.000000, 34.000000)" id="base_colour">
            <g>
                <mask id="mask-2" fill="white">
                    <use xlink:href="#path-1"></use>
                </mask>
                <use id="Mask" fill="#383748" xlink:href="#path-1"></use>
            </g>
        </g>
    </g>
</svg>