<?xml version="1.0" encoding="UTF-8"?>
<svg width="262px" height="230px" viewBox="0 0 262 230" version="1.1" xmlns="http://www.w3.org/2000/svg" xmlns:xlink="http://www.w3.org/1999/xlink">
    <!-- Generator: Sketch 54.1 (76490) - https://sketchapp.com -->
    <title>image</title>
    <desc>Created with Sketch.</desc>
    <defs>
        <path d="M8,0 L254,0 C258.418278,-8.11624501e-16 262,3.581722 262,8 L262,230 L1.70530257e-13,230 L1.70530257e-13,8 C1.69989174e-13,3.581722 3.581722,8.11624501e-16 8,0 Z" id="path-1"></path>
        <polygon id="path-3" points="0 82.7324804 95.9666841 82.7324804 107.348355 42.0380679 111.370183 27.6577546 112.140104 24.9068042 110.701567 24.5066475 103.544334 22.5063708 101.330809 21.883342 88.0597911 18.1750548 88.0597911 18.1704961 33.9322715 3.04052219 31.3844386 2.32631854 23.1280418 0.0165535248"></polygon>
        <path d="M72.7746512,183.153526 L8.56166423,165.198142 C2.72393577,163.565604 -0.716398433,157.453844 0.915632898,151.616116 L40.918129,8.55859112 C42.5506668,2.72086266 48.6624266,-0.719978068 54.5001551,0.912559791 L118.712636,18.8679436 C124.55087,20.5004815 127.991205,26.6122413 126.358667,32.4499697 L86.3561708,175.507495 C84.7241394,181.345223 78.6118731,184.786064 72.7746512,183.153526" id="path-5"></path>
        <path d="M52.0758486,0.802866319 L75.5908773,7.37809869 C76.4180366,7.60958172 76.9053159,8.47473055 76.6738329,9.30188982 L72.2336136,25.1815243 C72.0021305,26.0086836 71.1364752,26.4959629 70.3098225,26.2644799 L68.1221305,25.6525948 L66.2216397,29.8349916 L59.3779478,23.2075869 L46.7947937,19.6892475 C45.9676345,19.458271 45.4803551,18.5926157 45.7118381,17.7654564 L50.1520574,1.88582193 C50.3835405,1.05866266 51.2491958,0.57138329 52.0758486,0.802866319 Z M42.6180193,33.2656512 C43.4451786,33.4966277 43.932458,34.3627896 43.7009749,35.1894423 L39.2607556,51.0690768 C39.0292726,51.8957295 38.1636172,52.3830089 37.3369645,52.1520324 L12.9968026,45.34633 L3.7086094,47.462095 L4.25312637,42.9008157 L2.06492794,42.2889305 C1.2382752,42.057954 0.750995822,41.1922987 0.981972324,40.365646 L5.42269817,24.4860115 C5.65367467,23.6588522 6.51933003,23.1715728 7.34598277,23.4025493 L42.6180193,33.2656512 Z M23.0925018,62.9133086 L58.3645384,72.7764104 C59.1911911,73.0073869 59.6784705,73.8730423 59.4469875,74.7002016 L55.0067681,90.5793295 C54.7757916,91.4064888 53.9101363,91.8937681 53.082977,91.6627916 L50.8952851,91.0509065 L48.9947943,95.2333034 L42.1511023,88.6058987 L17.811447,81.7996898 C16.9842877,81.5682068 16.4970084,80.7025514 16.7284914,79.8758987 L21.1687107,63.9962642 C21.4001937,63.1696115 22.2658491,62.6823321 23.0925018,62.9133086 Z" id="path-7"></path>
        <polygon id="path-9" points="74.9852204 0.623500261 82.3850794 0.623500261 82.4210428 13.7324298 75.8108601 13.7324298 9.40005065 13.7324298 0.571277807 13.7324298 0.571277807 0.613369713 5.8442282 0.613369713"></polygon>
    </defs>
    <g id="CrewCloud" stroke="none" stroke-width="1" fill="none" fill-rule="evenodd">
        <g id="Homepage" transform="translate(-683.000000, -737.000000)">
            <g id="image_tabs" transform="translate(391.000000, 737.000000)">
                <g id="talkback" transform="translate(292.000000, 0.000000)">
                    <g id="image">
                        <mask id="mask-2" fill="white">
                            <use xlink:href="#path-1"></use>
                        </mask>
                        <use id="Mask" fill="#D8D8D8" xlink:href="#path-1"></use>
                        <g id="colour_background" mask="url(#mask-2)" fill="#EAEAF0">
                            <g transform="translate(-4.000000, -3.000000)">
                                <rect x="0" y="0" width="275" height="263"></rect>
                            </g>
                        </g>
                        <g id="Image_phone" mask="url(#mask-2)">
                            <g transform="translate(25.000000, 15.207676)">
                                <g>
                                    <polygon id="Fill-1" fill="#996E55" points="87.248529 266.133874 19.8474585 247.286495 46.5840016 151.669821 113.985579 170.516693"></polygon>
                                    <polygon id="Fill-2" fill="#FFFFFF" points="107.788874 201.464556 34.5424773 181.764185 30.371224 201.797345 102.010409 221.722107"></polygon>
                                    <g id="leftsleeve" transform="translate(0.582245, 191.792324)">
                                        <mask id="mask-4" fill="white">
                                            <use xlink:href="#path-3"></use>
                                        </mask>
                                        <use id="Mask" fill="#102751" xlink:href="#path-3"></use>
                                        <g id="colour_base" mask="url(#mask-4)" fill="#383748">
                                            <g transform="translate(-4.000000, -13.000000)">
                                                <rect x="0" y="0" width="111" height="110"></rect>
                                            </g>
                                        </g>
                                    </g>
                                    <g id="back_hand" transform="translate(34.489775, 61.053694)">
                                        <path d="M141.40328,17.1461489 L94.8574631,44.1450732 C90.4648574,46.6184465 84.8474683,45.0471985 82.374095,40.6545927 C79.9012281,36.2614805 81.4719696,30.6440914 85.8645754,28.1712246 L132.410393,1.17179378 C136.803505,-1.30107306 142.420894,0.269668453 144.893761,4.66278072 C147.366628,9.05538647 145.795886,14.673282 141.40328,17.1461489" id="Fill-4" fill="#996E55"></path>
                                        <path d="M109.901631,62.2137165 L101.851898,91.0011891 C95.336942,114.300437 69.3758924,127.408354 43.8676783,120.275941 L26.320049,115.368703 C15.6480229,112.38475 7.38858687,105.213842 3.15097851,96.4331891 C2.82680097,95.7671055 2.52845632,95.091398 2.2564511,94.4070794 C-0.198687283,88.3039306 -0.74978911,81.5519202 1.09599679,74.9498418 L4.24001246,63.7064528 C4.6953806,62.0774606 8.17421089,46.056505 10.0210098,37.5154397 C10.706848,34.3476173 11.1662683,32.2095651 11.1662683,32.2095651 L11.4782892,32.3032726 L27.8867383,37.2910481 L109.901631,62.2137165 Z" id="Fill-8" fill="#FDCB8E"></path>
                                        <path d="M10.5451138,34.4308904 L2.49538008,63.218363 C-4.01957553,86.517611 11.3773383,111.190561 36.8855524,118.32348 L54.4331816,123.230212 C65.1052078,126.214165 75.8866438,124.367366 84.0635159,119.057945 C84.686038,118.657282 85.2913383,118.234332 85.8799232,117.789601 C91.1437561,113.845272 95.1174636,108.359073 96.9632495,101.756488 L100.107265,90.5136058 C100.56314,88.8846136 105.8989,73.3823421 108.750142,65.1229061 C109.806759,62.0584152 110.522988,59.9922899 110.522988,59.9922899 L110.207422,59.9107389 L93.5923096,55.6640131 L10.5451138,34.4308904 Z" id="Fill-10" fill="#BF9278"></path>
                                    </g>
                                    <g id="phone_background" transform="translate(46.582245, 0.792324)">
                                        <mask id="mask-6" fill="white">
                                            <use xlink:href="#path-5"></use>
                                        </mask>
                                        <use id="Mask" fill="#102751" xlink:href="#path-5"></use>
                                        <g id="colour_base" mask="url(#mask-6)" fill="#383748">
                                            <g transform="translate(-30.000000, -9.000000)">
                                                <rect x="0" y="0" width="199" height="199"></rect>
                                            </g>
                                        </g>
                                    </g>
                                    <path d="M60.567552,135.529427 C59.7621734,135.304528 59.2900898,134.465213 59.5154945,133.66034 L89.0977086,27.866518 C89.3231133,27.0611394 90.1614162,26.5890559 90.9673013,26.8144606 L160.918737,46.3745232 C161.724622,46.5999279 162.196706,47.4382308 161.971301,48.2441159 L132.389087,154.037432 C132.163683,154.84281 131.324873,155.315401 130.520001,155.089489 L60.567552,135.529427 Z" id="screen" fill="#FFFFFF"></path>
                                    <path d="M139.498757,30.6797713 C140.016428,30.8241316 140.559425,30.5202151 140.704798,30.0010245 C140.849665,29.4818339 140.544736,28.9413692 140.025545,28.7959958 L117.947535,22.6219332 C117.696804,22.5530454 117.432903,22.5839436 117.204459,22.712095 C116.977028,22.8402465 116.812913,23.0494423 116.742506,23.3006799 C116.672605,23.552424 116.70401,23.8163248 116.832161,24.0442621 C116.960313,24.271693 117.169509,24.4358078 117.420746,24.5062151 L139.499263,30.6797713 L139.498757,30.6797713 Z M139.761138,32.2358235 C139.539279,32.2358235 139.313874,32.2059384 139.089989,32.143129 L139.089483,32.143129 L117.011472,25.9695728 C116.369702,25.7897556 115.835315,25.3708574 115.508099,24.7898705 C115.180882,24.2078705 115.099331,23.534189 115.279655,22.8919123 C115.458459,22.2496355 115.877864,21.7152491 116.459357,21.3880324 C117.040851,21.0603091 117.715039,20.9797713 118.356809,21.159082 L140.435326,27.3326381 C141.761415,27.7039227 142.538428,29.0842099 142.168156,30.4097922 C141.859681,31.5125023 140.853717,32.2358235 139.761138,32.2358235 L139.761138,32.2358235 Z" id="speaker" fill="#F1F2F2"></path>
                                    <g id="highlight_colour" transform="translate(77.582245, 47.792324)">
                                        <mask id="mask-8" fill="white">
                                            <use xlink:href="#path-7"></use>
                                        </mask>
                                        <use id="Mask" fill="#FFFFFF" xlink:href="#path-7"></use>
                                        <g id="colour_highlight" mask="url(#mask-8)" fill="#18C8CB">
                                            <g transform="translate(-18.000000, -26.000000)">
                                                <rect x="0" y="0" width="117" height="131"></rect>
                                            </g>
                                        </g>
                                    </g>
                                    <g id="topfinger" transform="translate(127.007094, 94.114410)" fill="#996E55">
                                        <path d="M22.5420008,53.8384389 L12.8951862,59.2694258 C8.74723321,61.6045172 3.44186507,60.1208984 1.10677368,55.9724389 C-1.22882423,51.8239793 0.254794569,46.5196242 4.40274757,44.1835198 L14.0490557,38.7535459 C18.1980217,36.417948 23.5023768,37.9015668 25.8379747,42.0500263 C28.1735726,46.1979793 26.6899538,51.5033475 22.5420008,53.8384389" id="Fill-28"></path>
                                        <path d="M27.8051246,35.0152723 L18.1588165,40.4457527 C14.010357,42.7808441 8.70549535,41.2977318 6.37040397,37.1492723 C4.03480606,33.0008127 5.51791833,27.6959511 9.66637786,25.3603532 L19.312686,19.9303793 C23.461652,17.5942749 28.7660071,19.0778937 31.101605,23.2268597 C33.4366964,27.3748127 31.9535841,32.6801809 27.8051246,35.0152723" id="Fill-32"></path>
                                        <path d="M33.0687549,16.1916498 L23.4224468,21.6226368 C19.2739873,23.9577281 13.9691256,22.4741093 11.6335277,18.3261563 C9.29792982,14.1771903 10.7815486,8.8728352 14.9295016,6.53723729 L24.5763162,1.10675687 C28.7247758,-1.22884104 34.0296374,0.254777755 36.3652353,4.40323729 C38.7003267,8.55169682 37.2167079,13.8565584 33.0687549,16.1916498" id="Fill-36"></path>
                                    </g>
                                    <path d="M75.6755932,175.50457 L74.359635,180.21173 L60.8100266,176.422398 C50.1380005,173.438445 41.878058,166.267536 37.6409561,157.486884 C33.7883391,150.326316 32.5907395,143.159291 34.0481572,135.985808 L52.3824235,70.4188731 C61.5014366,72.9687321 66.8270658,82.4291446 64.2772068,91.5476512 L56.3206742,120.002842 C74.184883,124.998215 84.6168151,143.529014 79.6214418,161.39373 L78.3454992,165.955515 L75.6755932,175.50457 Z" id="thumb" fill="#BF9278"></path>
                                    <g id="top_hand" transform="translate(90.172762, 101.260291)" fill="#BF9278">
                                        <path d="M21.7098118,9.98906182 C21.6668669,4.51722647 25.8362333,0.0451017484 31.0219623,0.000346935164 C36.2082215,-0.0449673133 40.4465118,4.35443083 40.4889265,9.82626619 L40.709483,64.8372044 L22.409483,65.012624 L21.7098118,9.98906182 Z" id="Fill-42"></path>
                                        <path d="M79.6596566,76.965534 C74.9897632,76.9407141 71.2248025,73.262312 71.250493,68.7506723 L71.3375259,53.6100614 C71.3637406,49.0979152 75.1701206,45.4610483 79.8410626,45.4858682 C84.510956,45.510688 88.276441,49.1885836 88.2502262,53.7007298 L88.1631933,68.8413408 C88.1369785,73.353487 84.3300743,76.9908603 79.6596566,76.965534" id="Fill-44"></path>
                                        <path d="M64.1649973,76.965534 C59.7698035,76.9407141 56.2258176,73.262312 56.2504903,68.7506723 L56.3324037,53.6100614 C56.3565829,49.0979152 59.9395516,45.4610483 64.3352389,45.4858682 C68.7309261,45.510688 72.2744185,49.1885836 72.2502393,53.7007298 L72.1683259,68.8413408 C72.1436532,73.353487 68.5601911,76.9908603 64.1649973,76.965534" id="Fill-46"></path>
                                        <path d="M48.6601809,76.965534 C43.9897632,76.9407141 40.2248025,73.262312 40.250493,68.7506723 L40.3375259,53.6100614 C40.3637406,49.0979152 44.1706449,45.4610483 48.8410626,45.4858682 C53.5114803,45.510688 57.2764409,49.1885836 57.2502262,53.7007298 L57.1631933,68.8413408 C57.1375028,73.353487 53.3300743,76.9908603 48.6601809,76.965534" id="Fill-48"></path>
                                        <path d="M95.6601809,79.2740833 C90.9897632,79.2487569 87.2248025,75.5708614 87.250493,71.0592217 L87.3375259,55.9186107 C87.3637406,51.4064645 91.1706449,47.7690911 95.8410626,47.7944175 C100.51148,47.8192374 104.276441,51.4971329 104.250226,56.0092791 L104.163193,71.1498901 C104.137503,75.6615298 100.330074,79.2994097 95.6601809,79.2740833" id="Fill-50"></path>
                                        <path d="M81.5682602,133.532033 C94.1308817,133.532033 104.409483,123.348897 104.409483,110.902954 L104.409483,59.6411728 C104.409483,59.0314496 103.905895,58.5320332 103.289945,58.5320332 L23.5295314,58.5320332 C22.9135814,58.5320332 22.409483,59.0314496 22.409483,59.6411728 L22.409483,110.902954 C22.409483,123.348897 32.6880844,133.532033 45.2507058,133.532033 L81.5682602,133.532033 Z" id="Fill-56"></path>
                                        <path d="M51.5999478,134.947893 L31.8874204,134.947893 C14.2764752,134.947893 -3.44613227e-13,120.670911 -3.44613227e-13,103.060472 L-3.44613227e-13,59.8526708 C11.09447,59.8526708 20.0883708,68.8465716 20.0883708,79.9410415 L20.9286997,99.8972086 L31.4026736,105.244619 L51.5999478,134.947893 Z" id="Fill-59"></path>
                                    </g>
                                    <polygon id="Fill-52" fill="#BF9278" points="183.393055 274.524703 116.982245 274.524703 117.027326 269.226426 117.098747 261.406149 117.210183 248.763225 117.321619 235.8564 117.407222 226.445121 117.458381 220.498489 130.785117 220.047679 179.867624 218.381204 180.845222 233.936661 181.731645 248.069283 182.11154 254.167873 182.567415 261.415773"></polygon>
                                    <polygon id="Fill-54" fill="#FFFFFF" points="182.143553 248.063103 112.645966 248.815296 113.908738 269.231897 182.043261 269.128058"></polygon>
                                    <g id="rightsleeve" transform="translate(107.582245, 260.792324)">
                                        <mask id="mask-10" fill="white">
                                            <use xlink:href="#path-9"></use>
                                        </mask>
                                        <use id="Mask" fill="#102751" xlink:href="#path-9"></use>
                                        <g id="colour_base" mask="url(#mask-10)" fill="#383748">
                                            <g transform="translate(-22.000000, -18.000000)">
                                                <rect x="0" y="0" width="134" height="43"></rect>
                                            </g>
                                        </g>
                                    </g>
                                </g>
                            </g>
                        </g>
                    </g>
                </g>
            </g>
        </g>
    </g>
</svg>