<?xml version="1.0" encoding="UTF-8"?>
<svg width="262px" height="230px" viewBox="0 0 262 230" version="1.1" xmlns="http://www.w3.org/2000/svg" xmlns:xlink="http://www.w3.org/1999/xlink">
    <!-- Generator: Sketch 54.1 (76490) - https://sketchapp.com -->
    <title>image</title>
    <desc>Created with Sketch.</desc>
    <defs>
        <path d="M8,0 L254,0 C258.418278,-8.11624501e-16 262,3.581722 262,8 L262,230 L-2.27373675e-13,230 L-2.27373675e-13,8 C-2.27914758e-13,3.581722 3.581722,8.11624501e-16 8,0 Z" id="path-1"></path>
        <rect id="path-3" x="0" y="0" width="285" height="264"></rect>
        <path d="M47.574631,0.833763838 C73.8495387,0.833763838 95.1495387,19.2472325 95.1495387,41.9611624 C95.1495387,52.3363469 90.6960332,61.8062731 83.3642989,69.0419742 C86.3338561,74.3550738 90.3049815,79.1157749 95.1495387,82.9809041 C89.4697417,83.3691882 83.6225092,82.7196494 77.8560886,80.9135609 C75.3152214,80.1176199 72.895572,79.1179889 70.595203,77.9542435 C63.7726937,81.2226937 55.9273063,83.0891144 47.574631,83.0891144 C21.3,83.0891144 0,64.6756458 0,41.9611624 C0,19.2472325 21.3,0.833763838 47.574631,0.833763838" id="path-5"></path>
        <path d="M58.2170756,0.276780443 C26.0644926,0.276780443 -8.30258305e-05,22.8091605 -8.30258305e-05,50.6048247 C-8.30258305e-05,63.3003044 5.44945572,74.8890498 14.4215037,83.7429244 C10.7880166,90.2446771 5.92796125,96.0703229 -8.30258305e-05,100.800028 C6.95000923,101.275212 14.105452,100.480378 21.1618173,98.2702306 C24.2711347,97.2963376 27.2321125,96.0730904 30.0469649,94.6491974 C38.3957657,98.6485517 47.9960424,100.932592 58.2170756,100.932592 C90.3696587,100.932592 116.434234,78.3999354 116.434234,50.6048247 C116.434234,22.8091605 90.3696587,0.276780443 58.2170756,0.276780443" id="path-7"></path>
        <path d="M304.5,215 C341.779376,215 372,241.19112 372,273.500161 C372,305.808558 341.779376,332 304.5,332 C292.649203,332 281.518143,329.345084 271.838109,324.696326 C268.574423,326.351427 265.141311,327.773301 261.536207,328.905332 C253.354691,331.474357 245.058298,332.398254 237,331.84591 C243.873283,326.34821 249.508283,319.576613 253.721137,312.019125 C243.318478,301.727585 237,288.257094 237,273.500161 C237,241.19112 267.220624,215 304.5,215 Z M108.5,222 C129.763052,222 147,236.998334 147,255.500092 C147,274.001482 129.763052,289 108.5,289 C101.740656,289 95.3918296,287.479663 89.8706253,284.817554 C88.0091154,285.765347 86.0509703,286.579583 83.9947257,287.22784 C79.3282309,288.698991 74.5962145,289.22806 70,288.91176 C73.9203168,285.763505 77.1343543,281.885753 79.5372413,277.557961 C73.6038729,271.664515 70,263.950644 70,255.500092 C70,236.998334 87.2369484,222 108.5,222 Z M258.5,60 C273.687894,60 286,70.5212192 286,83.5000646 C286,96.4786515 273.687894,107 258.5,107 C253.671897,107 249.137021,105.933495 245.193304,104.066046 C243.863654,104.730915 242.464979,105.302095 240.996233,105.756843 C237.663022,106.788844 234.28301,107.159982 231,106.938101 C233.800226,104.729623 236.095967,102.009409 237.812315,98.9734949 C233.574195,94.8392865 231,89.4280636 231,83.5000646 C231,70.5212192 243.312106,60 258.5,60 Z M47.5,0 C73.733635,0 95,18.5800255 95,41.5001141 C95,64.4197463 73.733635,83 47.5,83 C39.1605501,83 31.327582,81.1165979 24.5157066,77.8187615 C22.2190385,78.9928926 19.8031451,80.0015727 17.26622,80.8046373 C11.5088563,82.6271078 5.67065431,83.2825217 0,82.8906883 C4.83675449,78.9906105 8.80212542,74.1868283 11.7667262,68.8255335 C4.44633672,61.5246973 0,51.968708 0,41.5001141 C0,18.5800255 21.266365,0 47.5,0 Z" id="path-9"></path>
    </defs>
    <g id="CrewCloud" stroke="none" stroke-width="1" fill="none" fill-rule="evenodd">
        <g id="Homepage" transform="translate(-975.000000, -737.000000)">
            <g id="image_tabs" transform="translate(391.000000, 737.000000)">
                <g id="faqs" transform="translate(584.000000, 0.000000)">
                    <g id="image">
                        <mask id="mask-2" fill="white">
                            <use xlink:href="#path-1"></use>
                        </mask>
                        <use id="Mask" fill="#D8D8D8" xlink:href="#path-1"></use>
                        <g id="colour_background" mask="url(#mask-2)" fill="#EAEAF0">
                            <g transform="translate(-7.000000, -7.000000)">
                                <rect x="0" y="0" width="285" height="270"></rect>
                            </g>
                        </g>
                        <g id="image_speech" mask="url(#mask-2)">
                            <mask id="mask-4" fill="white">
                                <use xlink:href="#path-3"></use>
                            </mask>
                            <g id="Rectangle"></g>
                            <g stroke-width="1" fill-rule="evenodd" mask="url(#mask-4)">
                                <g transform="translate(-47.000000, -35.000000)">
                                    <g id="image_speech" stroke="none" fill="none" transform="translate(94.000000, 90.000000)" fill-rule="evenodd" stroke-width="1">
                                        <g id="speech">
                                            <g id="light" transform="translate(54.685987, 31.000000)">
                                                <mask id="mask-6" fill="white">
                                                    <use xlink:href="#path-5"></use>
                                                </mask>
                                                <use id="Mask" fill="#FFFFFF" xlink:href="#path-5"></use>
                                                <g id="colour_highlight" mask="url(#mask-6)" fill="#18C8CB">
                                                    <g transform="translate(4.314013, -13.000000)">
                                                        <rect x="0" y="0" width="112" height="106"></rect>
                                                    </g>
                                                </g>
                                            </g>
                                            <g id="dark">
                                                <mask id="mask-8" fill="white">
                                                    <use xlink:href="#path-7"></use>
                                                </mask>
                                                <use id="Mask" fill="#FFFFFF" xlink:href="#path-7"></use>
                                                <g id="colour_base" mask="url(#mask-8)" fill="#383748">
                                                    <g transform="translate(-17.000000, -38.000000)">
                                                        <rect x="0" y="0" width="199" height="199"></rect>
                                                    </g>
                                                </g>
                                                <g id="innercircles" mask="url(#mask-8)" fill="#FFFFFF">
                                                    <g transform="translate(21.000000, 41.000000)">
                                                        <path d="M15.9825069,15.9826107 C12.3263261,19.6387915 6.39855858,19.6387915 2.74210102,15.9826107 C-0.914079796,12.3264299 -0.914079796,6.39866236 2.74237777,2.74248155 C6.39855858,-0.913976015 12.3263261,-0.913976015 15.9825069,2.74248155 C19.6386877,6.39866236 19.6386877,12.3264299 15.9825069,15.9826107" id="Fill-6"></path>
                                                        <path d="M44.4395272,15.9827491 C40.7833464,19.6389299 34.8555789,19.6389299 31.1991213,15.9827491 C27.5429405,12.3265683 27.5429405,6.39852399 31.1991213,2.74234317 C34.8555789,-0.914114391 40.7833464,-0.914114391 44.4395272,2.74234317 C48.0959848,6.39852399 48.0959848,12.3265683 44.4395272,15.9827491" id="Fill-8"></path>
                                                        <path d="M72.8962708,15.9826107 C69.2400899,19.6387915 63.3120457,19.6387915 59.6558649,15.9826107 C55.999684,12.3264299 55.999684,6.39866236 59.6561416,2.74248155 C63.3123224,-0.913976015 69.2403667,-0.913699262 72.8965475,2.74248155 C76.5527283,6.39866236 76.5527283,12.3264299 72.8962708,15.9826107" id="Fill-10"></path>
                                                    </g>
                                                </g>
                                            </g>
                                        </g>
                                    </g>
                                    <mask id="mask-10" fill="white">
                                        <use xlink:href="#path-9"></use>
                                    </mask>
                                    <use id="Combined-Shape" stroke="none" fill="#FFFFFF" fill-rule="evenodd" xlink:href="#path-9"></use>
                                    <g id="colour_white" stroke="none" fill="none" mask="url(#mask-10)" fill-rule="evenodd">
                                        <g transform="translate(-41.000000, -37.000000)" fill="#FFFFFF">
                                            <rect x="0" y="0" width="429" height="457"></rect>
                                        </g>
                                    </g>
                                </g>
                            </g>
                        </g>
                    </g>
                </g>
            </g>
        </g>
    </g>
</svg>