<?xml version="1.0" encoding="UTF-8"?>
<svg width="262px" height="230px" viewBox="0 0 262 230" version="1.1" xmlns="http://www.w3.org/2000/svg" xmlns:xlink="http://www.w3.org/1999/xlink">
    <!-- Generator: Sketch 54.1 (76490) - https://sketchapp.com -->
    <title>image</title>
    <desc>Created with Sketch.</desc>
    <defs>
        <path d="M8,0 L254,0 C258.418278,-8.11624501e-16 262,3.581722 262,8 L262,230 L0,230 L0,8 C-5.41083001e-16,3.581722 3.581722,8.11624501e-16 8,0 Z" id="path-1"></path>
        <path d="M0.318745098,58.7596875 L24.4771765,95.326875 C29.0371765,100.778438 37.7336471,99.6565625 40.7579608,93.2378125 L73.1626667,24.408125 L77.8481569,14.470625 C79.7744314,10.3784375 78.6073725,5.514375 75.0340392,2.7253125 C70.2779608,-0.98875 63.3132549,0.4690625 60.4567843,5.78 L54.1399216,16.8253125 L30.121098,58.7596875 L30.0912941,58.6753125 L0.318745098,58.7596875 Z" id="path-3"></path>
        <path d="M51.1738223,1.65668874 C51.2049987,0.734569536 50.4723517,-3.97903932e-13 49.568234,-3.97903932e-13 L18.8438223,-3.97903932e-13 C17.8773517,-3.97903932e-13 17.0199987,0.390728477 16.3964693,1.01589404 C15.7729399,1.6410596 15.383234,2.50066225 15.383234,3.46966887 C15.383234,5.09509934 16.505587,8.06463576 18.095587,8.42410596 L30.1920576,10.7684768 C29.8335281,10.8309934 30.0361752,11.1592053 30.3011752,11.4561589 C30.5349987,11.7218543 30.8311752,11.9562914 30.8311752,11.9562914 L30.5349987,14.2850331 C30.3323517,15.3478146 30.1297046,16.4262252 29.9270576,17.5046358 C24.4867634,46.1997351 18.3138223,74.7229139 13.2164693,103.527417 C11.3926458,113.780132 9.70911637,124.048477 8.15029285,134.33245 C7.83852814,136.16106 7.5579399,137.989669 7.2929399,139.818278 C6.37323402,146.038675 5.51588108,152.274702 4.73646932,158.526358 C4.68970461,158.932715 4.6429399,159.339073 4.58058696,159.729801 C4.15970461,163.152583 3.76999873,166.559735 3.39588108,169.966887 C3.30235167,170.732715 3.22441049,171.498543 3.14646932,172.248742 C2.72558696,176.171656 2.32029285,180.09457 1.97735167,184.017483 C1.57205755,188.331126 1.22911637,192.660397 0.948528139,196.97404 C0.870586963,198.161854 0.792645786,204.05404 0.71470461,205.257483 C0.667939904,205.945166 0.636763433,206.632848 0.589998727,207.336159 C0.636763433,207.49245 0.543234022,207.633113 0.309410492,207.758146 L0.309410492,215.807152 C0.604028139,216.004079 0.625851669,216.018146 0.920469316,216.21351 C2.71311637,215.514887 1.59076343,217.038728 1.43176343,217.776424 C7.76058696,222.668344 13.9802928,222.996556 20.6052928,227.560265 C21.6652928,228.294834 22.7876458,228.951258 23.8320576,229.685828 C24.0658811,229.857748 24.2529399,229.982781 24.4088223,230.107815 C24.5802928,230.170331 24.7673517,230.248477 25.0323517,230.357881 C27.6667634,231.498808 30.2699987,232.592848 32.9979399,233.483709 C32.8888223,233.389934 36.2558811,234.265166 36.5364693,234.312053 C38.5629399,234.655894 40.5894105,234.890331 42.6470576,235.077881 C44.0001164,235.202914 45.3625281,235.298252 46.7296164,235.365457 C48.6532046,235.460795 50.2634693,233.910384 50.2338517,231.980185 C50.0530281,220.19894 49.8285576,208.380185 49.6149987,196.536424 C49.5058811,191.034967 49.4123517,185.53351 49.303234,180.032053 C49.038234,164.809272 48.8199987,149.555232 48.6952928,134.33245 C48.5861752,120.109934 48.5861752,99.6670199 48.7420576,85.5382781 C48.8511752,74.738543 49.0538223,63.9700662 49.3811752,53.2484768 C49.5994105,46.0278146 50.3476458,24.834702 50.8308811,11.4561589 C50.9867634,7.11125828 51.1114693,3.59470199 51.1738223,1.65668874" id="path-5"></path>
        <path d="M51.4169697,1.65668874 C51.4484848,0.734569536 50.7078788,-6.82121026e-13 49.7939394,-6.82121026e-13 L18.7357576,-6.82121026e-13 C17.7587879,-6.82121026e-13 16.8921212,0.390728477 16.2618182,1.01589404 C15.6315152,1.6410596 15.2375758,2.50066225 15.2375758,3.46966887 C15.2375758,5.09509934 16.3721212,8.06463576 17.9793939,8.42410596 L30.2072727,10.7684768 C29.8448485,10.8309934 30.049697,11.1592053 30.3175758,11.4561589 C30.5539394,11.7218543 30.8533333,11.9562914 30.8533333,11.9562914 L30.5539394,14.2850331 C30.3490909,15.3478146 30.1442424,16.4262252 29.9393939,17.5046358 C24.44,46.1997351 18.2,74.7229139 13.0472727,103.527417 C11.2036364,113.780132 9.50181818,124.048477 7.92606061,134.33245 C7.61090909,136.16106 7.32727273,137.989669 7.05939394,139.818278 C6.12969697,146.038675 5.2630303,152.274702 4.47515152,158.526358 C4.42787879,158.932715 4.38060606,159.339073 4.31757576,159.729801 C3.89212121,163.152583 3.49818182,166.559735 3.12,169.966887 C3.02545455,170.732715 2.94666667,171.498543 2.86787879,172.248742 C2.44242424,176.171656 2.03272727,180.09457 1.68606061,184.017483 C1.27636364,188.331126 0.92969697,192.660397 0.646060606,196.97404 C0.567272727,198.161854 0.488484848,204.05404 0.40969697,205.257483 C0.362424242,205.945166 0.330909091,206.632848 0.283636364,207.336159 C0.330909091,207.49245 0.236363636,207.633113 0,207.758146 L0,215.807152 C0.297818182,216.004079 0.319878788,216.018146 0.61769697,216.21351 C2.42981818,215.514887 1.29527273,217.038728 1.13454545,217.776424 C7.53212121,222.668344 13.8193939,222.996556 20.5163636,227.560265 C21.5878788,228.294834 22.7224242,228.951258 23.7781818,229.685828 C24.0145455,229.857748 24.2036364,229.982781 24.3612121,230.107815 C24.5345455,230.170331 24.7236364,230.248477 24.9915152,230.357881 C27.6545455,231.498808 30.2860606,232.592848 33.0436364,233.483709 C32.9333333,233.389934 36.3369697,234.265166 36.6206061,234.312053 C38.6690909,234.655894 40.7175758,234.890331 42.7975758,235.077881 C44.1653333,235.202914 45.5425455,235.298252 46.9244848,235.365457 C48.8689697,235.460795 50.4967273,233.910384 50.4667879,231.980185 C50.284,220.19894 50.0570909,208.380185 49.8412121,196.536424 C49.7309091,191.034967 49.6363636,185.53351 49.5260606,180.032053 C49.2581818,164.809272 49.0375758,149.555232 48.9115152,134.33245 C48.8012121,120.109934 48.8012121,99.6670199 48.9587879,85.5382781 C49.0690909,74.738543 49.2739394,63.9700662 49.6048485,53.2484768 C49.8254545,46.0278146 50.5818182,24.834702 51.070303,11.4561589 C51.2278788,7.11125828 51.3539394,3.59470199 51.4169697,1.65668874" id="path-7"></path>
        <path d="M133.48987,130.252683 L133.677443,138.655155 L32.2318117,138.655155 L32.4819087,130.252683 L33.6542388,89.6615596 L34.2482194,69.2957169 L0.999374757,69.2957169 C1.29636505,68.2493124 1.59491845,67.2185258 1.92317087,66.1877393 C2.06228738,65.750436 2.18889903,65.3131326 2.3436466,64.8914472 C6.86102524,50.9445933 14.0200544,37.8723461 23.6347243,26.5336944 C24.5256951,25.4872899 25.4322971,24.4565034 26.3701612,23.4569528 L26.3842291,23.4413348 C32.7320058,16.5381888 39.8285107,10.790773 47.9722971,7.22987416 C48.175501,7.12054831 48.3943359,7.04245843 48.5959767,6.94875056 C50.5826854,6.12099775 52.7554039,5.35571685 55.0688019,4.63728989 C59.2876272,3.35661573 64.0097728,2.31021124 68.9945204,1.52931236 C76.2785981,0.404817978 84.1566563,-0.126193258 91.9721903,0.0768404494 C98.2246175,0.233020225 104.431715,0.873357303 110.262103,2.04470562 C111.323452,2.2633573 112.387928,2.49762697 113.43521,2.74751461 C121.546171,4.73099775 128.738025,7.87021124 134.036957,12.3369528 C135.865792,13.8831326 137.553948,15.5854921 139.117054,17.3971775 C150.197918,30.1883011 155.170161,48.9454921 161.719579,64.8914472 C161.719579,64.9226831 161.733647,64.9539191 161.750841,64.9851551 L132.051812,64.9851551 L133.48987,130.252683 Z" id="path-9"></path>
        <polygon id="path-11" points="0.212710606 30.58805 100.792062 39.7547467 102 20.1906291 101.057514 0.626511538 0.212710606 0.626511538"></polygon>
        <path d="M0.930012121,0.860321429 C0.860678788,7.88615 1.43898182,14.8979643 2.63970909,21.8116786 C4.56213333,32.7770786 8.02564848,43.4886643 12.9735273,53.6303357 L20.3780121,68.8124786 L30.6976485,90.0020786 L37.9209212,104.821407 C40.0261333,107.809564 44.0254061,108.857521 47.3486788,107.278579 C51.2786182,105.420907 52.7755879,100.659164 50.6278303,96.9298071 L47.2336485,83.2409643 L31.786497,20.9739357 L32.8895273,7.49530714 L33.4394667,0.860321429 L0.930012121,0.860321429 Z" id="path-13"></path>
        <polygon id="path-15" points="6.87630175 0 30.6507493 0 36 48 0 48"></polygon>
        <path d="M11.1514806,16.3634388 L3.45627059,8.81887571 L12.3710353,0.0786328571 L21.2858,8.81887571 L13.59059,16.3634388 L24.7132118,95.8184714 L12.3710353,107.920586 L0.0288588235,95.8184714 L11.1514806,16.3634388 Z" id="path-17"></path>
        <path d="M42.9448776,45.8493318 C40.1683151,46.2673963 37.2667526,45.3879124 35.3323776,43.370364 C34.4058151,42.4057189 33.7667526,41.3791382 33.3589401,40.3355253 C32.7058151,38.6679124 31.0214401,37.6119124 29.2183151,37.5252027 C25.9370651,37.3657189 22.5839401,37.2805576 19.3995651,36.6844285 C19.0948776,36.6472673 18.7901901,36.6162995 18.4870651,36.5698479 L18.4339401,36.5574608 C17.0761276,36.3190092 15.7448776,35.9737189 14.4730026,35.4844285 C6.64800257,32.6168156 0.807377572,25.4539769 0.0761275722,16.6529447 C-0.423872428,10.642106 1.56831507,4.96726726 5.19175257,0.712299517 C5.28706507,0.582235001 5.40112757,0.467654356 5.49800257,0.373202743 L21.2761276,15.866364 L21.8839401,14.3117834 C21.8839401,14.3117834 21.9042526,14.1569447 21.9464401,14.1522995 L22.0667526,13.8441705 C22.4620651,12.8346221 23.4261276,12.1564285 24.5183151,12.1192673 C26.1042526,12.0666221 27.3995651,13.3610737 27.3355026,14.9311382 L27.0167526,22.7226221 L27.0558151,23.190235 C27.2605026,25.6490737 29.4542526,27.4932027 31.9370651,27.2919124 C34.6776901,27.0689447 37.8792526,26.3288156 40.5308151,27.3399124 C40.7433151,27.4173318 40.7730026,27.4080415 40.7355026,27.3708802 C49.8401901,28.5166866 53.5558151,44.2513963 42.9448776,45.8493318" id="path-19"></path>
        <path d="M21.9406274,4.64464444 L28.3293123,12.9202 L8.02794247,26.9202 L0.360271233,20.8068667 C3.14278117,16.8967599 6.39799176,13.5457303 10.125903,10.7537778 C13.8538142,7.96182526 17.7920557,5.92544748 21.9406274,4.64464444 Z M113.00086,14.7716222 L106.410723,19.1427333 L84.5477096,6.69828889 L87.3430521,0.180511111 C95.4479836,2.15606667 102.631545,5.28273333 107.925518,9.73162222 C109.752641,11.2716222 111.439216,12.9671778 113.00086,14.7716222 Z" id="path-21"></path>
        <polygon id="path-23" points="0 0 0 6 3.54666667 6 34.7145833 6 38 6 38 0"></polygon>
    </defs>
    <g id="CrewCloud" stroke="none" stroke-width="1" fill="none" fill-rule="evenodd">
        <g id="Homepage" transform="translate(-1267.000000, -737.000000)">
            <g id="image_tabs" transform="translate(391.000000, 737.000000)">
                <g id="events" transform="translate(876.000000, 0.000000)">
                    <g id="image">
                        <mask id="mask-2" fill="white">
                            <use xlink:href="#path-1"></use>
                        </mask>
                        <use id="Mask" fill="#D8D8D8" xlink:href="#path-1"></use>
                        <g id="colour_background" mask="url(#mask-2)" fill="#EAEAF0">
                            <g transform="translate(-7.000000, -8.000000)">
                                <rect x="0" y="0" width="281" height="260"></rect>
                            </g>
                        </g>
                        <rect id="Rectangle" stroke="#FFFFFF" fill="#FFFFFF" mask="url(#mask-2)" x="-2.5" y="174.5" width="272" height="115"></rect>
                        <g id="Group-7" mask="url(#mask-2)" fill="#FFFFFF">
                            <g transform="translate(-7.000000, -17.000000)">
                                <path d="M256.782144,89.969745 L277.292225,89.969745 L277.292225,64.4025496 L256.782144,64.4025496 L256.782144,89.969745 Z M232.941817,89.969745 L253.451898,89.969745 L253.451898,64.4025496 L232.941817,64.4025496 L232.941817,89.969745 Z M209.11911,89.969745 L229.629192,89.969745 L229.629192,64.4025496 L209.11911,64.4025496 L209.11911,89.969745 Z M185.277021,89.969745 L205.787103,89.969745 L205.787103,64.4025496 L185.277021,64.4025496 L185.277021,89.969745 Z M273.345268,48.2094051 L289.413261,45.1786969 L271.283688,27.0473088 L268.288229,42.9409065 L256.535459,42.9409065 L256.535459,33.3906516 L234.349682,33.3906516 L234.349682,0 L228.217802,0 L228.217802,33.3906516 L206.03555,33.3906516 L206.03555,42.9409065 L189.22574,42.9409065 L189.22574,57.4953541 L174,57.4953541 L174,64.3496884 L182.864796,64.3496884 L182.864796,99.6257224 L174,99.6257224 L174,108.365439 L212.854623,108.365439 L212.854623,278.772295 L249.716385,278.772295 L249.716385,108.365439 L288.567484,108.365439 L288.567484,99.6257224 L279.706213,99.6257224 L279.706213,64.3496884 L288.567484,64.3496884 L288.567484,57.4953541 L273.345268,57.4953541 L273.345268,48.2094051 Z" id="Fill-2"></path>
                                <polygon id="Fill-6" points="0 342.381739 225 342.381739 225 148.381739 0 148.381739"></polygon>
                            </g>
                        </g>
                        <g id="image_piolet" mask="url(#mask-2)">
                            <g transform="translate(-37.000000, 33.000000)">
                                <g transform="translate(-1.000000, 1.000000)">
                                    <g id="rightarm" transform="translate(132.000000, 72.000000)">
                                        <mask id="mask-4" fill="white">
                                            <use xlink:href="#path-3"></use>
                                        </mask>
                                        <use id="Mask" fill="#E4E9FF" xlink:href="#path-3"></use>
                                        <g id="colour_background" mask="url(#mask-4)" fill="#EAEAF0">
                                            <g transform="translate(-18.254902, -14.062500)">
                                                <rect x="0" y="0" width="104" height="127"></rect>
                                            </g>
                                        </g>
                                    </g>
                                    <path d="M186,89.3369734 L205.307881,97 L210.063603,86.9573771 C212.020343,82.8219007 210.835791,77.9063842 207.207304,75.0878179 C202.379936,71.3344665 195.312426,72.8077003 192.411547,78.1763981 L186,89.3369734 Z" id="Fill-3" fill="#FBC4A4"></path>
                                    <polygon id="Fill-5" fill="#FBC4A4" points="69 43 69 72 92 72 92 49.2067452"></polygon>
                                    <path d="M101.924441,33.1936162 C100.926886,21.0808119 90.306412,12.0766308 78.1764601,13.0757207 C73.3650001,13.4716448 69.0283451,15.3971353 65.6289273,18.3248087 C64.7349948,19.0965515 63.8982864,19.9487163 63.1389078,20.8828498 C59.5523518,25.1328481 57.580442,30.8010589 58.0753527,36.8048774 C58.7991596,45.5956306 64.5803352,52.7516502 72.3241411,55.6143673 C73.5846168,56.1030862 74.9023165,56.4479732 76.2463084,56.6861464 L76.2988926,56.698519 C78.0821177,56.9877292 79.9194737,57.0805239 81.7877616,56.9258661 C82.2548336,56.8872016 82.7219055,56.8315248 83.1858843,56.7588356 C87.041548,56.1974275 90.5384014,54.653942 93.4552813,52.4114029 C99.1374748,48.0052002 102.560092,40.9110438 101.924441,33.1936162" id="Fill-43" fill="#FBC4A4" transform="translate(80.000000, 35.000000) scale(1, -1) translate(-80.000000, -35.000000) "></path>
                                    <g id="leftleg" transform="translate(55.500000, 316.000000) rotate(180.000000) translate(-55.500000, -316.000000) translate(29.000000, 198.000000)">
                                        <g transform="translate(0.249413, -0.000000)">
                                            <mask id="mask-6" fill="white">
                                                <use xlink:href="#path-5"></use>
                                            </mask>
                                            <use id="Mask" fill="#2062A9" xlink:href="#path-5"></use>
                                            <g id="colour_base" mask="url(#mask-6)" fill="#383748">
                                                <g transform="translate(0.000000, 0.486258)">
                                                    <rect x="0" y="0" width="59" height="238"></rect>
                                                </g>
                                            </g>
                                        </g>
                                        <path d="M51.4232353,1.65668874 C51.4544118,0.734569536 50.7217647,-8.41282599e-12 49.8176471,-8.41282599e-12 L19.0932353,-8.41282599e-12 C18.1267647,-8.41282599e-12 17.2694118,0.390728477 16.6458824,1.01589404 C16.0223529,1.6410596 15.6326471,2.50066225 15.6326471,3.46966887 C15.6326471,5.09509934 16.755,8.06463576 18.345,8.42410596 L30.4414706,10.7684768 C30.0829412,10.8309934 30.2855882,11.1592053 30.5505882,11.4561589 L51.0802941,11.4561589 C51.2361765,7.11125828 51.3608824,3.59470199 51.4232353,1.65668874" id="Fill-10" fill="#000000"></path>
                                    </g>
                                    <g id="rightleg" transform="translate(108.000000, 315.000000) rotate(180.000000) translate(-108.000000, -315.000000) translate(82.000000, 197.000000)">
                                        <g transform="translate(0.000000, -0.000000)">
                                            <mask id="mask-8" fill="white">
                                                <use xlink:href="#path-7"></use>
                                            </mask>
                                            <use id="Mask" fill="#2062A9" xlink:href="#path-7"></use>
                                            <g id="colour_base" mask="url(#mask-8)" fill="#383748">
                                                <g transform="translate(-9.454545, 6.251656)">
                                                    <rect x="0" y="0" width="128" height="217"></rect>
                                                </g>
                                            </g>
                                        </g>
                                        <path d="M51.4169697,1.65668874 C51.4484848,0.734569536 50.7078788,-9.09494702e-12 49.7939394,-9.09494702e-12 L18.7357576,-9.09494702e-12 C17.7587879,-9.09494702e-12 16.8921212,0.390728477 16.2618182,1.01589404 C15.6315152,1.6410596 15.2375758,2.50066225 15.2375758,3.46966887 C15.2375758,5.09509934 16.3721212,8.06463576 17.9793939,8.42410596 L30.2072727,10.7684768 C29.8448485,10.8309934 30.049697,11.1592053 30.3175758,11.4561589 L51.070303,11.4561589 C51.2278788,7.11125828 51.3539394,3.59470199 51.4169697,1.65668874" id="Fill-17" fill="#000000"></path>
                                    </g>
                                    <g id="shirt" transform="translate(0.000000, 66.000000)">
                                        <mask id="mask-10" fill="white">
                                            <use xlink:href="#path-9"></use>
                                        </mask>
                                        <use id="Mask" fill="#FFFFFF" xlink:href="#path-9"></use>
                                        <g id="colour_background" mask="url(#mask-10)" fill="#EAEAF0">
                                            <g transform="translate(-17.757282, -1.561798)">
                                                <rect x="0" y="0" width="311" height="311"></rect>
                                            </g>
                                        </g>
                                    </g>
                                    <g id="crotch" transform="translate(32.000000, 196.000000)">
                                        <mask id="mask-12" fill="white">
                                            <use xlink:href="#path-11"></use>
                                        </mask>
                                        <use id="Mask" fill="#2062A9" xlink:href="#path-11"></use>
                                        <g id="colour_base" mask="url(#mask-12)" fill="#383748">
                                            <g transform="translate(-10.924242, -11.038462)">
                                                <rect x="0" y="0" width="117" height="251"></rect>
                                            </g>
                                        </g>
                                    </g>
                                    <g id="leftarm" transform="translate(1.000000, 130.000000)">
                                        <mask id="mask-14" fill="white">
                                            <use xlink:href="#path-13"></use>
                                        </mask>
                                        <use id="Mask" fill="#E4E9FF" xlink:href="#path-13"></use>
                                        <g id="colour_background" mask="url(#mask-14)" fill="#EAEAF0">
                                            <g transform="translate(0.000000, -12.457143)">
                                                <rect x="0" y="0" width="57" height="139"></rect>
                                            </g>
                                        </g>
                                    </g>
                                    <path d="M31,220.823879 L38.2535434,235.780778 C40.3675779,238.798247 44.3836104,239.854361 47.7192276,238.262332 C51.6672187,236.387415 53.1704617,231.579897 51.0121211,227.815919 L47.6052976,214 L31,220.823879 Z" id="Fill-34" fill="#FBC4A4"></path>
                                    <g id="cup" transform="translate(198.000000, 63.000000)">
                                        <mask id="mask-16" fill="white">
                                            <use xlink:href="#path-15"></use>
                                        </mask>
                                        <use id="Mask" fill="#5BC5C9" transform="translate(18.000000, 24.000000) rotate(180.000000) translate(-18.000000, -24.000000) " xlink:href="#path-15"></use>
                                        <g id="colour_highlight" mask="url(#mask-16)" fill="#18C8CB">
                                            <g transform="translate(-4.695652, 0.000000)">
                                                <rect x="0" y="0" width="45" height="54"></rect>
                                            </g>
                                        </g>
                                    </g>
                                    <path d="M210,76 L210,93 L199.835909,93 C195.503799,93 192,89.4210526 192,84.9960295 C192,82.9491228 192.756083,81.0623269 194.016221,79.6401662 C195.264066,78.2180055 197.015965,77.2620499 199.009135,77.0422899 L210,76 Z" id="Fill-41" fill="#FBC4A4"></path>
                                    <g id="tie" transform="translate(69.000000, 71.000000)">
                                        <mask id="mask-18" fill="white">
                                            <use xlink:href="#path-17"></use>
                                        </mask>
                                        <use id="Mask" fill="#FFFFFF" xlink:href="#path-17"></use>
                                        <g id="colour_highlight" mask="url(#mask-18)" fill="#18C8CB">
                                            <g transform="translate(-13.705882, -4.114286)">
                                                <rect x="0" y="0" width="51" height="117"></rect>
                                            </g>
                                        </g>
                                    </g>
                                    <path d="M55,70.6263338 L68.2850994,84 L81.208869,70.9916403 L94.1310812,84 L110,68.0237212 C91.9942516,64.3549781 70.2973325,65.9431989 55,70.6263338" id="Fill-28" fill="#FFFFFF"></path>
                                    <g id="hair" transform="translate(56.000000, 0.000000)">
                                        <mask id="mask-20" fill="white">
                                            <use xlink:href="#path-19"></use>
                                        </mask>
                                        <use id="Mask" fill="#6F2677" transform="translate(24.698436, 23.162118) scale(1, -1) translate(-24.698436, -23.162118) " xlink:href="#path-19"></use>
                                        <g id="colour_base" mask="url(#mask-20)" fill="#383748">
                                            <g transform="translate(-7.812500, -4.096774)">
                                                <rect x="0" y="0" width="62" height="56"></rect>
                                            </g>
                                        </g>
                                    </g>
                                    <g id="shoulderpads" transform="translate(26.000000, 69.000000)">
                                        <mask id="mask-22" fill="white">
                                            <use xlink:href="#path-21"></use>
                                        </mask>
                                        <use id="Mask" fill="#6F2677" xlink:href="#path-21"></use>
                                        <g id="colour_base" mask="url(#mask-22)" fill="#383748">
                                            <g transform="translate(-24.986301, -13.444444)">
                                                <rect x="0" y="0" width="150" height="48"></rect>
                                            </g>
                                        </g>
                                    </g>
                                    <g id="cuptip" transform="translate(196.000000, 60.000000)">
                                        <mask id="mask-24" fill="white">
                                            <use xlink:href="#path-23"></use>
                                        </mask>
                                        <use id="Mask" fill="#FFFFFF" xlink:href="#path-23"></use>
                                        <g id="colour_background" mask="url(#mask-24)" fill="#EAEAF0">
                                            <g transform="translate(-15.833333, -12.000000)">
                                                <rect x="0" y="0" width="67" height="37"></rect>
                                            </g>
                                        </g>
                                    </g>
                                </g>
                            </g>
                        </g>
                    </g>
                </g>
            </g>
        </g>
    </g>
</svg>