<?xml version="1.0" encoding="UTF-8"?>
<svg width="262px" height="230px" viewBox="0 0 262 230" version="1.1" xmlns="http://www.w3.org/2000/svg" xmlns:xlink="http://www.w3.org/1999/xlink">
    <!-- Generator: Sketch 54.1 (76490) - https://sketchapp.com -->
    <title>image</title>
    <desc>Created with Sketch.</desc>
    <defs>
        <path d="M8,0 L254,0 C258.418278,-8.11624501e-16 262,3.581722 262,8 L262,230 L0,230 L0,8 C-5.41083001e-16,3.581722 3.581722,8.11624501e-16 8,0 Z" id="path-1"></path>
        <polygon id="path-3" points="0 299.770115 400 299.770115 400 5.68434189e-14 0 5.68434189e-14"></polygon>
        <polygon id="path-5" points="0.75862069 0.574712644 0.75862069 166.091954 37.5402299 147.393776 37.5402299 7.86792999"></polygon>
        <path d="M44.6092305,75.5788166 C38.9525463,58.5999135 33.0593114,55.3144429 15.7785625,48.5930583 L16.0352249,48.3327582 C11.9033499,46.7655171 8.10364551,44.0487788 5.12337443,40.1825433 C-1.70779148,31.3222792 -1.70779148,18.6150552 5.12337443,9.75281419 C15.1472612,-3.25093806 34.4410342,-3.25093806 44.4649209,9.75281419 C45.9446373,11.6719354 47.1039207,13.7713634 47.9427709,15.9729871 L48.0260548,15.8885228 C54.305477,31.9139932 57.6054863,38.1796704 71.3867733,43.4341341 C83.3316529,41.7281492 95.8507451,47.069294 102.648859,58.5152837 C110.186026,71.2033353 107.727781,87.850793 96.8508865,97.7802256 C82.1529165,111.200319 59.131379,107.753541 48.9458046,90.6074173 C46.1818838,85.9546385 44.762342,80.7696949 44.6092305,75.5788166 Z" id="path-7"></path>
        <path d="M0.01360136,1.13226756 C2.23978176,1.01102302 4.6683422,0.543644873 7.09886749,0 C8.04985717,0.475200375 9.18161349,0.75484504 10.5118201,0.75484504 C11.3802859,0.75484504 12.1740872,0.631644942 12.9030483,0.416533662 L21.860821,6.52178292 C28.4784517,10.1591191 32.9720745,17.158058 32.9720745,25.2266866 C32.9720745,31.5568249 30.1957347,37.2357627 25.8023196,41.1488324 C24.8257868,42.2146111 26.7965361,45.4315025 25.621553,46.2821698 L14.0348047,16.1235683 L0.646284581,3.04089129 C0.135422353,2.45617971 2.37535674,4.57209249 2.01382347,3.90915864 C2.23192234,3.90329197 -0.202532659,1.1440009 0.01360136,1.13226756" id="path-9"></path>
        <path d="M0.241169116,6.65992558 C3.38017988,7.54831856 13.1727014,8.04589921 14.7243264,7.42946326 L35.640469,6.62567914 C35.5908011,4.39966046 35.5232527,2.19177224 35.4398107,0 L1.8106745,0 C0.324611174,2.02054004 -0.416433772,4.36541402 0.241169116,6.65992558" id="path-11"></path>
        <path d="M1.98813715,0.349414509 C0.50210876,2.334184 -0.240905434,4.64182517 0.418668663,6.89796533 C3.55760563,7.77150161 13.349897,8.26076115 14.9014854,7.65463394 L35.8171364,6.8642916 C35.7674696,4.6754989 35.6999229,2.50255267 35.6144961,0.349414509 L1.98813715,0.349414509 Z" id="path-13"></path>
        <path d="M24.2100426,0 C32.7299189,0 96.5572878,3.76589647 96.5572878,3.76589647 C105.668947,11.8174497 111.34952,24.2618573 113.599005,41.0991191 C115.84849,57.936381 112.713207,103.460164 104.193156,177.670467 L0,171.346303 L24.2100426,0 Z" id="path-15"></path>
        <path d="M21.010565,23.833525 L28.3561721,47.2499633 C28.5253532,47.7901898 29.276832,47.8040927 29.4696197,47.2718107 L40.6827853,15.8890167 L28.8794531,0 L9.20723288,11.9167625 L0.0242404556,44.6064281 C-0.142973417,45.2042524 0.594734843,45.6272975 1.01572036,45.1764466 L21.010565,23.833525 Z" id="path-17"></path>
    </defs>
    <g id="CrewCloud" stroke="none" stroke-width="1" fill="none" fill-rule="evenodd">
        <g id="Homepage" transform="translate(-391.000000, -737.000000)">
            <g id="image_tabs" transform="translate(391.000000, 737.000000)">
                <g id="crew_room">
                    <g id="image">
                        <mask id="mask-2" fill="white">
                            <use xlink:href="#path-1"></use>
                        </mask>
                        <use id="Mask" fill="#FFFFFF" xlink:href="#path-1"></use>
                        <g id="background" mask="url(#mask-2)">
                            <g transform="translate(-133.000000, -24.000000)">
                                <g id="background_colour" stroke-width="1" fill="none">
                                    <mask id="mask-4" fill="white">
                                        <use xlink:href="#path-3"></use>
                                    </mask>
                                    <use id="Mask" fill="#EAEAF0" xlink:href="#path-3"></use>
                                    <g id="colour_background" mask="url(#mask-4)" fill="#EAEAF0">
                                        <g transform="translate(35.000000, 7.000000)">
                                            <rect x="0" y="0" width="377" height="263"></rect>
                                        </g>
                                    </g>
                                </g>
                                <polygon id="Fill-2" fill="#FFFFFF" points="263.908046 57.9310345 263.908046 197.701149 200.45977 197.701149 200.45977 58.018447 216.852152 57.9959695 247.515665 57.953512"></polygon>
                                <g id="door" stroke-width="1" fill="none" transform="translate(163.000000, 50.000000)">
                                    <mask id="mask-6" fill="white">
                                        <use xlink:href="#path-5"></use>
                                    </mask>
                                    <use id="Mask" fill="#383748" xlink:href="#path-5"></use>
                                    <g id="colour_base" mask="url(#mask-6)" fill="#383748">
                                        <g transform="translate(-21.000000, -4.000000)">
                                            <rect x="0" y="0" width="199" height="199"></rect>
                                        </g>
                                    </g>
                                </g>
                                <polygon id="Fill-6" fill="#FFFFFF" points="200 198.070692 0 299.520998 400 299.520998 263.71125 198.070692"></polygon>
                                <polygon id="Fill-8" fill="#EAEAF0" opacity="0.5" points="264.70995 178.724699 264.70995 197.670082 200.99995 197.670082 200.99995 178.736653 217.45995 178.733416 248.24995 178.727688"></polygon>
                            </g>
                        </g>
                        <g id="image_woman" mask="url(#mask-2)">
                            <g transform="translate(66.000000, 50.000000)">
                                <g transform="translate(11.000000, 0.000000)">
                                    <path d="M127.54401,300.640897 C134.588114,342.022233 148.291593,380.031259 155.266287,421.195536 C155.266287,421.195536 150.298528,422.367656 146.0328,423.358235 C143.151301,424.027171 140.119084,425.99057 138.23312,428.455177 C136.749734,430.432389 136.00804,432.731242 136.664459,434.978791 C139.799799,435.849001 149.570717,436.336397 151.123513,435.730605 L172,434.945245 C171.950422,432.764788 171.882995,430.600116 171.79772,428.455177 C170.45117,389.471358 166.175526,344.660488 164.355006,305.057063 C163.040185,276.452617 164.497791,254.96771 168.813098,219.371986 C168.676262,219.287135 161.027301,218.817498 160.908313,218.734621 C151.472545,212.71419 158.750659,208.321703 150.865705,203.795033 C148.035768,202.151304 145.15427,200.54112 142.237075,199 C138.260884,205.371672 131.167202,208.809099 123.36554,209.361613 C120.281761,242.711762 122.740851,272.454782 127.54401,300.640897" id="right" fill="#FBC4A4"></path>
                                    <path d="M80.55176,299.868135 C71.4355372,246.240177 56.710557,283.958157 79.9263516,421.111018 C79.9263516,421.111018 74.9330437,422.289829 70.6507892,423.286063 C67.7567819,423.960803 64.7114018,425.933426 62.8152593,428.412104 C61.3254331,430.400603 60.5825118,432.712581 61.2417798,434.972961 C64.3887389,435.848139 74.2040646,436.338318 75.7616102,435.729067 L96.730715,434.939224 C96.6809213,432.746318 96.6112102,430.571273 96.5275568,428.412104 C95.1731694,389.205727 98.1647723,279.234975 96.3363492,239.405456 C95.0337471,210.637707 117.66596,253.934201 122,218.135262 C121.86257,218.049927 114.19833,217.577609 114.060899,217.494258 C104.584171,211.439457 111.893879,207.021893 103.974696,202.469381 C101.132474,200.816267 98.2384669,199.198875 95.3086081,197.646973 C91.3151568,204.05502 87.9988993,193.465568 80.1793034,194.021236 C77.0821379,227.56178 75.7277505,271.523091 80.55176,299.868135" id="left" fill="#FBC4A4"></path>
                                    <g id="back_hair" transform="translate(105.000000, 0.000000)">
                                        <mask id="mask-8" fill="white">
                                            <use xlink:href="#path-7"></use>
                                        </mask>
                                        <use id="Mask" fill="#383748" xlink:href="#path-7"></use>
                                        <g id="colour_base" mask="url(#mask-8)" fill="#383748">
                                            <g transform="translate(-6.000000, -5.000000)">
                                                <rect x="0" y="0" width="115" height="151"></rect>
                                            </g>
                                        </g>
                                    </g>
                                    <path d="M107.031712,33.1181929 C107.55804,42.3976209 115.009118,50.103965 124.265029,50.9229114 C129.10607,51.3510416 133.613245,49.9723837 137.181671,47.3721799 C141.920588,43.9196435 145,38.3186004 145,32.0066254 C145,21.5036875 136.496266,13 126.007018,13 C125.610308,13 125.199851,13.0137473 124.803141,13.0412419 C114.498501,13.6795094 106.428791,22.5111683 107.031712,33.1181929" id="face" fill="#FBC4A4"></path>
                                    <polygon id="neck" fill="#FBC4A4" points="137.415565 33 150 78 123 77.8956602 123.688844 43.4674512"></polygon>
                                    <g id="top_hair" transform="translate(117.000000, 5.000000)">
                                        <mask id="mask-10" fill="white">
                                            <use xlink:href="#path-9"></use>
                                        </mask>
                                        <use id="Mask" fill="#383748" xlink:href="#path-9"></use>
                                        <g id="colour_base" mask="url(#mask-10)" fill="#383748">
                                            <g transform="translate(-64.807181, -34.993836)">
                                                <rect x="0" y="0" width="226" height="225"></rect>
                                            </g>
                                        </g>
                                    </g>
                                    <path d="M126,28 C126,32.4182195 129.581317,36 133.998965,36 C138.418683,36 142,32.4182195 142,28 C142,23.5817805 138.418683,20 133.998965,20 C129.581317,20 126,23.5817805 126,28" id="ear" fill="#FBC4A4"></path>
                                    <g id="left_foot" transform="translate(61.000000, 428.000000)">
                                        <mask id="mask-12" fill="white">
                                            <use xlink:href="#path-11"></use>
                                        </mask>
                                        <use id="Mask" fill="#383748" xlink:href="#path-11"></use>
                                        <g id="colour_base" mask="url(#mask-12)" fill="#383748">
                                            <g transform="translate(-21.161528, -9.904039)">
                                                <rect x="0" y="0" width="67" height="29"></rect>
                                            </g>
                                        </g>
                                    </g>
                                    <g id="right_foot" transform="translate(136.000000, 428.000000)">
                                        <mask id="mask-14" fill="white">
                                            <use xlink:href="#path-13"></use>
                                        </mask>
                                        <use id="Mask" fill="#383748" xlink:href="#path-13"></use>
                                        <g id="colour_base" mask="url(#mask-14)" fill="#383748">
                                            <g transform="translate(-12.251411, -9.904039)">
                                                <rect x="0" y="0" width="67" height="29"></rect>
                                            </g>
                                        </g>
                                    </g>
                                    <path d="M46.7555158,51.9183687 C42.4386871,50.6683408 38.6333216,48.2521527 36.0819296,45.1430578 L11.5020726,4.08383534 C10.11579,2.02508336 7.24448667,0.765071226 4.54893715,1.03664278 C4.50746715,1.03863963 4.46994668,1.04263333 4.42847669,1.04662703 C1.25108535,1.36412612 -0.628887648,3.67647802 0.192613158,6.26040146 L16.1842322,58.1185869 C17.6475305,62.7353032 21.8715455,66.8268482 27.4423478,69.0213859 C27.4423478,69.0213859 82.5915137,91.8853144 85.0086219,93.8582019 C85.1192085,93.8721798 85.2238709,93.8921483 85.3324828,93.9061263 C85.3759275,93.9061263 85.3996247,93.9041294 85.447019,93.9021326 C86.481794,93.8841609 87.5777867,93.9999782 88.6224355,93.9999782 C89.5900687,94.0019751 90.9408056,93.8661893 91.6141993,93.8102775 C92.6391005,93.5227311 93.8180332,93.1852636 94.639534,93.1812699 C95.0048649,93.0115376 95.3978424,92.8497928 95.7177538,92.7100133 C95.7592238,92.6920417 95.798719,92.6640858 95.8382142,92.6441173 C95.5222524,92.6780637 95.7651481,92.2946686 97.0566421,91.8633491 C97.976881,90.9807415 98.8872461,90.1081182 99.7679897,89.195558 C99.8311821,89.1276651 99.9042483,89.0418005 99.9773145,88.9459517 C100.767219,87.6959239 100.834361,87.6519932 100.628986,87.9874639 C100.75932,87.79976 100.889654,87.6120562 101.01209,87.4203586 C101.938253,85.9646552 102.767653,84.4630243 103.543734,82.939428 C105.678451,78.7340626 107.420191,74.3709462 109,69.9539147 L46.7555158,51.9183687 Z" id="arm" fill="#FBC4A4"></path>
                                    <path d="M155.222261,152 L175.122879,89.7029979 C178.730176,78.4140932 170.793726,66.73291 158.958461,65.9186349 L117.808704,63.0835309 C96.7836566,61.6352702 79.4016025,79.2204435 81.117002,100.203383 L85.0534968,148.406095 L155.222261,152 Z" id="top" fill="#FFFFFF"></path>
                                    <g id="skirt" transform="translate(61.000000, 146.000000)">
                                        <mask id="mask-16" fill="white">
                                            <use xlink:href="#path-15"></use>
                                        </mask>
                                        <use id="Mask" fill="#383748" xlink:href="#path-15"></use>
                                        <g id="colour_base" mask="url(#mask-16)" fill="#383748">
                                            <g transform="translate(-6.748456, -4.526636)">
                                                <rect x="0" y="0" width="130" height="191"></rect>
                                            </g>
                                        </g>
                                    </g>
                                    <g id="neckachief" transform="translate(96.000000, 64.000000)">
                                        <mask id="mask-18" fill="white">
                                            <use xlink:href="#path-17"></use>
                                        </mask>
                                        <use id="Mask" fill="#18C8CB" xlink:href="#path-17"></use>
                                        <g id="colour_highlight" mask="url(#mask-18)" fill="#18C8CB">
                                            <g transform="translate(-13.560928, -2.269676)">
                                                <rect x="0" y="0" width="64" height="60"></rect>
                                            </g>
                                        </g>
                                    </g>
                                    <path d="M106.553215,190.671014 C106.53736,190.619809 106.527451,190.584359 106.517542,190.548909 C105.54049,188.020172 105.974515,184.936059 107.585759,183.071017 L143.33435,146.041957 C145.635276,142.76287 146.931406,138.481349 146.980952,134.002884 C146.980952,134.002884 146.758985,83.4222366 147.57947,80.7615484 L147.57947,80.6985269 L147.605234,80.6748938 C149.077748,75.9935794 152.797679,72.1197276 157.865266,70.6347839 L157.896976,70.6013038 C157.896976,70.6013038 157.926704,70.607212 157.942558,70.6111509 C158.007959,70.5914567 158.071379,70.5638848 158.13678,70.54616 C166.278215,68.3246527 174.6872,73.0808052 176.922726,81.1692186 C177.94536,84.8796084 168.480049,148.111819 168.480049,148.111819 C167.863694,154.041746 165.067305,159.177997 161.054061,161.791419 L112.669201,193.375029 C110.407911,194.844217 107.706651,193.634993 106.553215,190.671014" id="arm" fill="#FBC4A4"></path>
                                </g>
                            </g>
                        </g>
                    </g>
                </g>
            </g>
        </g>
    </g>
</svg>