<?xml version="1.0" encoding="UTF-8"?>
<svg width="110px" height="118px" viewBox="0 0 110 118" version="1.1" xmlns="http://www.w3.org/2000/svg" xmlns:xlink="http://www.w3.org/1999/xlink">
    <!-- Generator: Sketch 54.1 (76490) - https://sketchapp.com -->
    <title>woman_roundel</title>
    <desc>Created with Sketch.</desc>
    <defs>
        <circle id="path-1" cx="50.7042254" cy="81.1267606" r="45.6338028"></circle>
        <path d="M22.8765284,38.8294837 C19.9756648,30.1063776 16.953493,28.4184294 8.09157053,24.9652409 L8.22319227,24.8315088 C6.10428202,24.0263207 4.15571565,22.6305653 2.6273715,20.6442424 C-0.875790501,16.0921801 -0.875790501,9.56369808 2.6273715,5.01062013 C7.76782624,-1.67020671 17.6620688,-1.67020671 22.8025235,5.01062013 C23.5613525,5.99659065 24.1558567,7.07519586 24.5860364,8.20630529 L24.628746,8.16291082 C27.8489625,16.39618 29.541275,19.6152435 36.6086017,22.3147845 C42.734181,21.4383152 49.1542283,24.1823896 52.6404407,30.062898 C56.5056543,36.58153 55.2450157,45.1343524 49.6671213,50.2357123 C42.1297007,57.1304389 30.3237841,55.3596173 25.1004126,46.5505997 C23.6830173,44.1601813 22.9550472,41.496357 22.8765284,38.8294837 Z" id="path-3"></path>
        <path d="M0.00697505641,0.581715443 C1.14860603,0.519424671 2.39402164,0.279303788 3.64044487,0 C4.12813188,0.244139642 4.70851974,0.387810296 5.39067699,0.387810296 C5.83604407,0.387810296 6.24312166,0.324514833 6.61694787,0.213998945 L11.2106774,3.35064077 C14.6043342,5.21936395 16.9087561,8.81514905 16.9087561,12.9604995 C16.9087561,16.2126807 15.4849922,19.1303001 13.2319588,21.1406846 C12.7311727,21.6882405 13.7418134,23.3409554 13.1392579,23.7779955 L7.19733572,8.2836681 L0.33142799,1.56229277 C0.0694473604,1.2618905 1.21813166,2.34896495 1.03272998,2.00837508 C1.14457556,2.00536101 -0.103862902,0.587743583 0.00697505641,0.581715443" id="path-5"></path>
        <path d="M0.12367647,3.42161314 C1.73342558,3.87803522 6.7552315,4.13367299 7.5509366,3.81697195 L18.2771636,3.40401864 C18.2516929,2.26037602 18.2170527,1.12604812 18.1742619,0 L0.928551024,0 C0.166467269,1.03807561 -0.21355578,2.24278151 0.12367647,3.42161314" id="path-7"></path>
        <path d="M1.01955751,0.179515711 C0.257491672,1.1992138 -0.123541248,2.38479091 0.214701879,3.5439088 C1.82441315,3.99269807 6.84610102,4.24406077 7.64178741,3.93265597 L18.3677622,3.52660853 C18.3422921,2.40209118 18.3076528,1.28571513 18.2638442,0.179515711 L1.01955751,0.179515711 Z" id="path-9"></path>
        <path d="M12.4154065,0 C16.7845738,0 49.5165579,1.9347725 49.5165579,1.9347725 C54.1892037,6.07135032 57.1023177,12.4648074 58.2558999,21.1151438 C59.4094821,29.7654801 57.8016446,53.1538455 53.4323875,91.28024 L0,88.0311283 L12.4154065,0 Z" id="path-11"></path>
        <path d="M10.7746487,12.2447468 L14.5416267,24.2752105 C14.6283862,24.5527581 15.01376,24.5599009 15.1126255,24.2864348 L20.8629668,8.16316452 L14.809976,0 L4.72165788,6.12237339 L0.0124310029,22.917064 C-0.0733197009,23.2242031 0.304992227,23.4415473 0.520882234,23.2099175 L10.7746487,12.2447468 Z" id="path-13"></path>
        <rect id="path-15" x="0" y="0" width="120" height="116.619718"></rect>
        <path d="M22.8765284,38.8294837 C19.9756648,30.1063776 16.953493,28.4184294 8.09157053,24.9652409 L8.22319227,24.8315088 C6.10428202,24.0263207 4.15571565,22.6305653 2.6273715,20.6442424 C-0.875790501,16.0921801 -0.875790501,9.56369808 2.6273715,5.01062013 C7.76782624,-1.67020671 17.6620688,-1.67020671 22.8025235,5.01062013 C23.5613525,5.99659065 24.1558567,7.07519586 24.5860364,8.20630529 L24.628746,8.16291082 C27.8489625,16.39618 29.541275,19.6152435 36.6086017,22.3147845 C42.734181,21.4383152 49.1542283,24.1823896 52.6404407,30.062898 C56.5056543,36.58153 55.2450157,45.1343524 49.6671213,50.2357123 C42.1297007,57.1304389 30.3237841,55.3596173 25.1004126,46.5505997 C23.6830173,44.1601813 22.9550472,41.496357 22.8765284,38.8294837 Z" id="path-17"></path>
        <path d="M0.00697505641,0.581715443 C1.14860603,0.519424671 2.39402164,0.279303788 3.64044487,0 C4.12813188,0.244139642 4.70851974,0.387810296 5.39067699,0.387810296 C5.83604407,0.387810296 6.24312166,0.324514833 6.61694787,0.213998945 L11.2106774,3.35064077 C14.6043342,5.21936395 16.9087561,8.81514905 16.9087561,12.9604995 C16.9087561,16.2126807 15.4849922,19.1303001 13.2319588,21.1406846 C12.7311727,21.6882405 13.7418134,23.3409554 13.1392579,23.7779955 L7.19733572,8.2836681 L0.33142799,1.56229277 C0.0694473604,1.2618905 1.21813166,2.34896495 1.03272998,2.00837508 C1.14457556,2.00536101 -0.103862902,0.587743583 0.00697505641,0.581715443" id="path-19"></path>
        <path d="M0.12367647,3.42161314 C1.73342558,3.87803522 6.7552315,4.13367299 7.5509366,3.81697195 L18.2771636,3.40401864 C18.2516929,2.26037602 18.2170527,1.12604812 18.1742619,0 L0.928551024,0 C0.166467269,1.03807561 -0.21355578,2.24278151 0.12367647,3.42161314" id="path-21"></path>
        <path d="M1.01955751,0.179515711 C0.257491672,1.1992138 -0.123541248,2.38479091 0.214701879,3.5439088 C1.82441315,3.99269807 6.84610102,4.24406077 7.64178741,3.93265597 L18.3677622,3.52660853 C18.3422921,2.40209118 18.3076528,1.28571513 18.2638442,0.179515711 L1.01955751,0.179515711 Z" id="path-23"></path>
        <path d="M12.4154065,0 C16.7845738,0 49.5165579,1.9347725 49.5165579,1.9347725 C54.1892037,6.07135032 57.1023177,12.4648074 58.2558999,21.1151438 C59.4094821,29.7654801 57.8016446,53.1538455 53.4323875,91.28024 L0,88.0311283 L12.4154065,0 Z" id="path-25"></path>
        <path d="M10.7746487,12.2447468 L14.5416267,24.2752105 C14.6283862,24.5527581 15.01376,24.5599009 15.1126255,24.2864348 L20.8629668,8.16316452 L14.809976,0 L4.72165788,6.12237339 L0.0124310029,22.917064 C-0.0733197009,23.2242031 0.304992227,23.4415473 0.520882234,23.2099175 L10.7746487,12.2447468 Z" id="path-27"></path>
    </defs>
    <g id="CrewRoom" stroke="none" stroke-width="1" fill="none" fill-rule="evenodd">
        <g id="crew_question" transform="translate(-474.000000, -906.000000)">
            <g id="question" transform="translate(390.000000, 620.000000)">
                <g id="answer" transform="translate(55.000000, 242.000000)">
                    <g id="woman_roundel" transform="translate(24.000000, 35.000000)">
                        <mask id="mask-2" fill="white">
                            <use xlink:href="#path-1"></use>
                        </mask>
                        <use id="Oval" fill="#FFFFFF" xlink:href="#path-1"></use>
                        <g id="image_woman" mask="url(#mask-2)">
                            <g transform="translate(60.000000, 121.090646) scale(-1, 1) translate(-60.000000, -121.090646) translate(0.000000, 9.295775)">
                                <g transform="translate(5.641026, 0.000000)">
                                    <path d="M65.4071846,154.457708 C69.0195456,175.717844 76.0469708,195.245418 79.6237369,216.394037 C79.6237369,216.394037 77.0761682,216.996227 74.8886152,217.505148 C73.4109236,217.848822 71.8559405,218.85754 70.8887797,220.123761 C70.1280685,221.139576 69.7477129,222.320638 70.0843378,223.475342 C71.6922045,223.922422 76.7029316,224.172828 77.4992375,223.861595 L88.2051282,223.458108 C88.1797034,222.337873 88.1451256,221.225748 88.1013949,220.123761 C87.4108563,200.095377 85.2182183,177.073278 84.2846182,156.726565 C83.6103515,142.030702 84.3578417,130.992585 86.5708196,112.704873 C86.5006471,112.661281 82.5781031,112.419999 82.5170835,112.37742 C77.6782284,109.284355 81.4105945,107.027664 77.3670283,104.702036 C75.9157786,103.857551 74.438087,103.0303 72.9420896,102.238532 C70.9030176,105.512052 67.2652318,107.278069 63.2643793,107.56193 C61.6829544,124.695951 62.9440263,139.976769 65.4071846,154.457708" id="right" fill="#FBC4A4"></path>
                                    <path d="M41.3085948,154.060693 C36.6336088,126.508715 29.0823369,145.886759 40.9878726,216.350615 C40.9878726,216.350615 38.4272019,216.956242 36.231174,217.468069 C34.7470676,217.814725 33.1853343,218.828182 32.2129535,220.101632 C31.4489401,221.123246 31.0679548,222.311051 31.4060409,223.472347 C33.0198661,223.921979 38.0533664,224.173815 38.8521078,223.860805 L49.6054949,223.455014 C49.5799596,222.328384 49.5442104,221.210929 49.5013112,220.101632 C48.8067535,199.958906 50.3409089,143.460171 49.403256,122.997298 C48.7352549,108.217537 60.341518,130.461608 62.5641026,112.069492 C62.4936254,112.025651 58.5632461,111.782992 58.4927689,111.740169 C53.632908,108.629446 57.3814766,106.359872 53.320357,104.020966 C51.8628073,103.17166 50.378701,102.340707 48.8762093,101.543399 C46.8282856,104.835607 45.1276407,99.3951541 41.1175915,99.6806351 C39.5293015,116.912474 38.8347438,139.498102 41.3085948,154.060693" id="left" fill="#FBC4A4"></path>
                                    <g id="back_hair" transform="translate(53.846154, 0.000000)">
                                        <mask id="mask-4" fill="white">
                                            <use xlink:href="#path-3"></use>
                                        </mask>
                                        <use id="Mask" fill="#383748" xlink:href="#path-3"></use>
                                        <g id="colour_base" mask="url(#mask-4)" fill="#383748">
                                            <g transform="translate(-3.076923, -2.568807)">
                                                <rect x="0" y="0" width="59" height="78"></rect>
                                            </g>
                                        </g>
                                    </g>
                                    <path d="M54.8880574,17.0148514 C55.1579693,21.782264 58.9790348,25.7414866 63.7256562,26.1622297 C66.2082409,26.3821865 68.5196128,25.6738852 70.3495749,24.3380007 C72.7797886,22.5642205 74.3589744,19.6866204 74.3589744,16.4437708 C74.3589744,11.0477661 69.9980852,6.67889908 64.6189838,6.67889908 C64.4155428,6.67889908 64.2050518,6.68596192 64.0016108,6.70008758 C58.71718,7.02800485 54.5788674,11.5653709 54.8880574,17.0148514" id="face" fill="#FBC4A4"></path>
                                    <polygon id="neck" fill="#FBC4A4" points="70.4695205 16.9541284 76.9230769 40.0733945 63.0769231 40.0197887 63.4301766 22.3319015"></polygon>
                                    <g id="top_hair" transform="translate(60.000000, 2.568807)">
                                        <mask id="mask-6" fill="white">
                                            <use xlink:href="#path-5"></use>
                                        </mask>
                                        <use id="Mask" fill="#383748" xlink:href="#path-5"></use>
                                        <g id="colour_base" mask="url(#mask-6)" fill="#383748">
                                            <g transform="translate(-33.234452, -17.978484)">
                                                <rect x="0" y="0" width="116" height="115"></rect>
                                            </g>
                                        </g>
                                    </g>
                                    <path d="M64.6153846,14.3853211 C64.6153846,16.655232 66.4519575,18.4954128 68.7174179,18.4954128 C70.9839399,18.4954128 72.8205128,16.655232 72.8205128,14.3853211 C72.8205128,12.1154102 70.9839399,10.2752294 68.7174179,10.2752294 C66.4519575,10.2752294 64.6153846,12.1154102 64.6153846,14.3853211" id="ear" fill="#FBC4A4"></path>
                                    <g id="left_foot" transform="translate(31.282051, 219.889908)">
                                        <mask id="mask-8" fill="white">
                                            <use xlink:href="#path-7"></use>
                                        </mask>
                                        <use id="Mask" fill="#383748" xlink:href="#path-7"></use>
                                        <g id="colour_base" mask="url(#mask-8)" fill="#383748">
                                            <g transform="translate(-10.852066, -5.088314)">
                                                <rect x="0" y="0" width="34" height="15"></rect>
                                            </g>
                                        </g>
                                    </g>
                                    <g id="right_foot" transform="translate(69.743590, 219.889908)">
                                        <mask id="mask-10" fill="white">
                                            <use xlink:href="#path-9"></use>
                                        </mask>
                                        <use id="Mask" fill="#383748" xlink:href="#path-9"></use>
                                        <g id="colour_base" mask="url(#mask-10)" fill="#383748">
                                            <g transform="translate(-6.282775, -5.088314)">
                                                <rect x="0" y="0" width="34" height="15"></rect>
                                            </g>
                                        </g>
                                    </g>
                                    <path d="M23.9771876,26.6736573 C21.7634293,26.0314412 19.8119598,24.7900968 18.5035537,23.1927637 L5.89849876,2.09811724 C5.1875846,1.0404098 3.71512137,0.393064116 2.33278828,0.532587116 C2.31152162,0.53361302 2.29228035,0.535664829 2.27101369,0.537716638 C0.641582231,0.700835438 -0.322506486,1.88883274 0.0987759785,3.21635304 L8.29960627,29.8590905 C9.05001566,32.2309815 11.2161772,34.3330596 14.0729989,35.4605286 C14.0729989,35.4605286 42.3546224,47.207134 43.5941651,48.2207276 C43.6508762,48.2279089 43.7045492,48.2381679 43.7602476,48.2453493 C43.7825269,48.2453493 43.7946793,48.2443234 43.8189841,48.2432975 C44.349638,48.2340643 44.9116855,48.2935668 45.4474028,48.2935668 C45.943625,48.2945927 46.6363106,48.2248312 46.9816407,48.1961059 C47.507231,48.0483756 48.1118119,47.8749978 48.5330943,47.872946 C48.7204435,47.7857441 48.9219705,47.7026458 49.0860276,47.6308325 C49.1072942,47.6215994 49.1275482,47.6072367 49.1478022,47.5969777 C48.9857705,47.6144181 49.1103323,47.4174444 49.772637,47.1958491 C50.2445544,46.7423993 50.7114082,46.2940791 51.1630717,45.8252408 C51.195478,45.79036 51.2329478,45.7462461 51.2704177,45.6970027 C51.675497,45.0547866 51.7099287,45.0322167 51.6046081,45.2045686 C51.6714462,45.1081336 51.7382843,45.0116986 51.8010715,44.9132118 C52.276027,44.1653275 52.7013603,43.3938473 53.0993507,42.6110823 C54.1940775,40.4505276 55.0872773,38.2089265 55.8974359,35.9396259 L23.9771876,26.6736573 Z" id="arm" fill="#FBC4A4"></path>
                                    <path d="M79.6011597,78.0917431 L89.8066046,46.0859439 C91.6565004,40.2861396 87.5865262,34.2847978 81.5171595,33.8664546 L60.4147198,32.4098874 C49.6326444,31.6658269 40.7187705,40.7004114 41.5984626,51.4806372 L43.6171779,76.245333 L79.6011597,78.0917431 Z" id="top" fill="#FFFFFF"></path>
                                    <g id="skirt" transform="translate(31.282051, 75.009174)">
                                        <mask id="mask-12" fill="white">
                                            <use xlink:href="#path-11"></use>
                                        </mask>
                                        <use id="Mask" fill="#383748" xlink:href="#path-11"></use>
                                        <g id="colour_base" mask="url(#mask-12)" fill="#383748">
                                            <g transform="translate(-3.460747, -2.325611)">
                                                <rect x="0" y="0" width="67" height="98"></rect>
                                            </g>
                                        </g>
                                    </g>
                                    <g id="neckachief" transform="translate(49.230769, 32.880734)">
                                        <mask id="mask-14" fill="white">
                                            <use xlink:href="#path-13"></use>
                                        </mask>
                                        <use id="Mask" fill="#18C8CB" xlink:href="#path-13"></use>
                                        <g id="colour_highlight" mask="url(#mask-14)" fill="#18C8CB">
                                            <g transform="translate(-6.954322, -1.166072)">
                                                <rect x="0" y="0" width="33" height="31"></rect>
                                            </g>
                                        </g>
                                    </g>
                                    <path d="M54.6426745,97.9594198 C54.6345438,97.9331127 54.6294622,97.9149001 54.6243805,97.8966874 C54.1233284,96.5975198 54.3459053,95.013021 55.1721839,94.0548343 L73.5047948,75.0307302 C74.6847572,73.3460619 75.3494388,71.1463809 75.3748471,68.8455186 C75.3748471,68.8455186 75.2610179,42.8591307 75.6817796,41.4921716 L75.6817796,41.4597936 L75.694992,41.4476519 C76.4501272,39.0425729 78.3577839,37.0523371 80.9565468,36.2894303 L80.9728082,36.2722295 C80.9728082,36.2722295 80.9880532,36.2752649 80.9961838,36.2772885 C81.0297228,36.2671704 81.0622454,36.253005 81.0957844,36.2438987 C85.2708795,35.1025739 89.5831796,37.5461018 90.729603,41.7016169 C91.2540307,43.6078722 86.4000253,76.0941454 86.4000253,76.0941454 C86.0839458,79.1407137 84.6499002,81.7795215 82.5918263,83.1221971 L57.7790775,99.3486388 C56.6194418,100.103451 55.2341802,99.4821981 54.6426745,97.9594198" id="arm" fill="#FBC4A4"></path>
                                </g>
                            </g>
                        </g>
                        <g id="woman">
                            <mask id="mask-16" fill="white">
                                <use xlink:href="#path-15"></use>
                            </mask>
                            <g id="Rectangle"></g>
                            <g id="image_woman" mask="url(#mask-16)">
                                <g transform="translate(60.000000, 121.090646) scale(-1, 1) translate(-60.000000, -121.090646) translate(0.000000, 9.295775)">
                                    <g transform="translate(5.641026, 0.000000)">
                                        <path d="M65.4071846,154.457708 C69.0195456,175.717844 76.0469708,195.245418 79.6237369,216.394037 C79.6237369,216.394037 77.0761682,216.996227 74.8886152,217.505148 C73.4109236,217.848822 71.8559405,218.85754 70.8887797,220.123761 C70.1280685,221.139576 69.7477129,222.320638 70.0843378,223.475342 C71.6922045,223.922422 76.7029316,224.172828 77.4992375,223.861595 L88.2051282,223.458108 C88.1797034,222.337873 88.1451256,221.225748 88.1013949,220.123761 C87.4108563,200.095377 85.2182183,177.073278 84.2846182,156.726565 C83.6103515,142.030702 84.3578417,130.992585 86.5708196,112.704873 C86.5006471,112.661281 82.5781031,112.419999 82.5170835,112.37742 C77.6782284,109.284355 81.4105945,107.027664 77.3670283,104.702036 C75.9157786,103.857551 74.438087,103.0303 72.9420896,102.238532 C70.9030176,105.512052 67.2652318,107.278069 63.2643793,107.56193 C61.6829544,124.695951 62.9440263,139.976769 65.4071846,154.457708" id="right" fill="#FBC4A4"></path>
                                        <path d="M41.3085948,154.060693 C36.6336088,126.508715 29.0823369,145.886759 40.9878726,216.350615 C40.9878726,216.350615 38.4272019,216.956242 36.231174,217.468069 C34.7470676,217.814725 33.1853343,218.828182 32.2129535,220.101632 C31.4489401,221.123246 31.0679548,222.311051 31.4060409,223.472347 C33.0198661,223.921979 38.0533664,224.173815 38.8521078,223.860805 L49.6054949,223.455014 C49.5799596,222.328384 49.5442104,221.210929 49.5013112,220.101632 C48.8067535,199.958906 50.3409089,143.460171 49.403256,122.997298 C48.7352549,108.217537 60.341518,130.461608 62.5641026,112.069492 C62.4936254,112.025651 58.5632461,111.782992 58.4927689,111.740169 C53.632908,108.629446 57.3814766,106.359872 53.320357,104.020966 C51.8628073,103.17166 50.378701,102.340707 48.8762093,101.543399 C46.8282856,104.835607 45.1276407,99.3951541 41.1175915,99.6806351 C39.5293015,116.912474 38.8347438,139.498102 41.3085948,154.060693" id="left" fill="#FBC4A4"></path>
                                        <g id="back_hair" transform="translate(53.846154, 0.000000)">
                                            <mask id="mask-18" fill="white">
                                                <use xlink:href="#path-17"></use>
                                            </mask>
                                            <use id="Mask" fill="#383748" xlink:href="#path-17"></use>
                                            <g id="colour_base" mask="url(#mask-18)" fill="#383748">
                                                <g transform="translate(-3.076923, -2.568807)">
                                                    <rect x="0" y="0" width="59" height="78"></rect>
                                                </g>
                                            </g>
                                        </g>
                                        <path d="M54.8880574,17.0148514 C55.1579693,21.782264 58.9790348,25.7414866 63.7256562,26.1622297 C66.2082409,26.3821865 68.5196128,25.6738852 70.3495749,24.3380007 C72.7797886,22.5642205 74.3589744,19.6866204 74.3589744,16.4437708 C74.3589744,11.0477661 69.9980852,6.67889908 64.6189838,6.67889908 C64.4155428,6.67889908 64.2050518,6.68596192 64.0016108,6.70008758 C58.71718,7.02800485 54.5788674,11.5653709 54.8880574,17.0148514" id="face" fill="#FBC4A4"></path>
                                        <polygon id="neck" fill="#FBC4A4" points="70.4695205 16.9541284 76.9230769 40.0733945 63.0769231 40.0197887 63.4301766 22.3319015"></polygon>
                                        <g id="top_hair" transform="translate(60.000000, 2.568807)">
                                            <mask id="mask-20" fill="white">
                                                <use xlink:href="#path-19"></use>
                                            </mask>
                                            <use id="Mask" fill="#383748" xlink:href="#path-19"></use>
                                            <g id="colour_base" mask="url(#mask-20)" fill="#383748">
                                                <g transform="translate(-33.234452, -17.978484)">
                                                    <rect x="0" y="0" width="116" height="115"></rect>
                                                </g>
                                            </g>
                                        </g>
                                        <path d="M64.6153846,14.3853211 C64.6153846,16.655232 66.4519575,18.4954128 68.7174179,18.4954128 C70.9839399,18.4954128 72.8205128,16.655232 72.8205128,14.3853211 C72.8205128,12.1154102 70.9839399,10.2752294 68.7174179,10.2752294 C66.4519575,10.2752294 64.6153846,12.1154102 64.6153846,14.3853211" id="ear" fill="#FBC4A4"></path>
                                        <g id="left_foot" transform="translate(31.282051, 219.889908)">
                                            <mask id="mask-22" fill="white">
                                                <use xlink:href="#path-21"></use>
                                            </mask>
                                            <use id="Mask" fill="#383748" xlink:href="#path-21"></use>
                                            <g id="colour_base" mask="url(#mask-22)" fill="#383748">
                                                <g transform="translate(-10.852066, -5.088314)">
                                                    <rect x="0" y="0" width="34" height="15"></rect>
                                                </g>
                                            </g>
                                        </g>
                                        <g id="right_foot" transform="translate(69.743590, 219.889908)">
                                            <mask id="mask-24" fill="white">
                                                <use xlink:href="#path-23"></use>
                                            </mask>
                                            <use id="Mask" fill="#383748" xlink:href="#path-23"></use>
                                            <g id="colour_base" mask="url(#mask-24)" fill="#383748">
                                                <g transform="translate(-6.282775, -5.088314)">
                                                    <rect x="0" y="0" width="34" height="15"></rect>
                                                </g>
                                            </g>
                                        </g>
                                        <path d="M23.9771876,26.6736573 C21.7634293,26.0314412 19.8119598,24.7900968 18.5035537,23.1927637 L5.89849876,2.09811724 C5.1875846,1.0404098 3.71512137,0.393064116 2.33278828,0.532587116 C2.31152162,0.53361302 2.29228035,0.535664829 2.27101369,0.537716638 C0.641582231,0.700835438 -0.322506486,1.88883274 0.0987759785,3.21635304 L8.29960627,29.8590905 C9.05001566,32.2309815 11.2161772,34.3330596 14.0729989,35.4605286 C14.0729989,35.4605286 42.3546224,47.207134 43.5941651,48.2207276 C43.6508762,48.2279089 43.7045492,48.2381679 43.7602476,48.2453493 C43.7825269,48.2453493 43.7946793,48.2443234 43.8189841,48.2432975 C44.349638,48.2340643 44.9116855,48.2935668 45.4474028,48.2935668 C45.943625,48.2945927 46.6363106,48.2248312 46.9816407,48.1961059 C47.507231,48.0483756 48.1118119,47.8749978 48.5330943,47.872946 C48.7204435,47.7857441 48.9219705,47.7026458 49.0860276,47.6308325 C49.1072942,47.6215994 49.1275482,47.6072367 49.1478022,47.5969777 C48.9857705,47.6144181 49.1103323,47.4174444 49.772637,47.1958491 C50.2445544,46.7423993 50.7114082,46.2940791 51.1630717,45.8252408 C51.195478,45.79036 51.2329478,45.7462461 51.2704177,45.6970027 C51.675497,45.0547866 51.7099287,45.0322167 51.6046081,45.2045686 C51.6714462,45.1081336 51.7382843,45.0116986 51.8010715,44.9132118 C52.276027,44.1653275 52.7013603,43.3938473 53.0993507,42.6110823 C54.1940775,40.4505276 55.0872773,38.2089265 55.8974359,35.9396259 L23.9771876,26.6736573 Z" id="arm" fill="#FBC4A4"></path>
                                        <path d="M79.6011597,78.0917431 L89.8066046,46.0859439 C91.6565004,40.2861396 87.5865262,34.2847978 81.5171595,33.8664546 L60.4147198,32.4098874 C49.6326444,31.6658269 40.7187705,40.7004114 41.5984626,51.4806372 L43.6171779,76.245333 L79.6011597,78.0917431 Z" id="top" fill="#FFFFFF"></path>
                                        <g id="skirt" transform="translate(31.282051, 75.009174)">
                                            <mask id="mask-26" fill="white">
                                                <use xlink:href="#path-25"></use>
                                            </mask>
                                            <use id="Mask" fill="#383748" xlink:href="#path-25"></use>
                                            <g id="colour_base" mask="url(#mask-26)" fill="#383748">
                                                <g transform="translate(-3.460747, -2.325611)">
                                                    <rect x="0" y="0" width="67" height="98"></rect>
                                                </g>
                                            </g>
                                        </g>
                                        <g id="neckachief" transform="translate(49.230769, 32.880734)">
                                            <mask id="mask-28" fill="white">
                                                <use xlink:href="#path-27"></use>
                                            </mask>
                                            <use id="Mask" fill="#18C8CB" xlink:href="#path-27"></use>
                                            <g id="colour_highlight" mask="url(#mask-28)" fill="#18C8CB">
                                                <g transform="translate(-6.954322, -1.166072)">
                                                    <rect x="0" y="0" width="33" height="31"></rect>
                                                </g>
                                            </g>
                                        </g>
                                        <path d="M54.6426745,97.9594198 C54.6345438,97.9331127 54.6294622,97.9149001 54.6243805,97.8966874 C54.1233284,96.5975198 54.3459053,95.013021 55.1721839,94.0548343 L73.5047948,75.0307302 C74.6847572,73.3460619 75.3494388,71.1463809 75.3748471,68.8455186 C75.3748471,68.8455186 75.2610179,42.8591307 75.6817796,41.4921716 L75.6817796,41.4597936 L75.694992,41.4476519 C76.4501272,39.0425729 78.3577839,37.0523371 80.9565468,36.2894303 L80.9728082,36.2722295 C80.9728082,36.2722295 80.9880532,36.2752649 80.9961838,36.2772885 C81.0297228,36.2671704 81.0622454,36.253005 81.0957844,36.2438987 C85.2708795,35.1025739 89.5831796,37.5461018 90.729603,41.7016169 C91.2540307,43.6078722 86.4000253,76.0941454 86.4000253,76.0941454 C86.0839458,79.1407137 84.6499002,81.7795215 82.5918263,83.1221971 L57.7790775,99.3486388 C56.6194418,100.103451 55.2341802,99.4821981 54.6426745,97.9594198" id="arm" fill="#FBC4A4"></path>
                                    </g>
                                </g>
                            </g>
                        </g>
                    </g>
                </g>
            </g>
        </g>
    </g>
</svg>